<?xml version="1.0" encoding="utf-8"?>
<!-- Generator: Adobe Illustrator 22.1.0, SVG Export Plug-In . SVG Version: 6.00 Build 0)  -->
<svg width='24' height='24' version="1.1" id="Layer_1" xmlns="http://www.w3.org/2000/svg" xmlns:xlink="http://www.w3.org/1999/xlink" x="0px" y="0px"
	 viewBox="0 0 24 24" enable-background="new 0 0 24 24" xml:space="preserve">
<path d="M17,23H7c-3.3,0-6-2.7-6-6V7c0-3.3,2.7-6,6-6h10c3.3,0,6,2.7,6,6v10C23,20.3,20.3,23,17,23z M7,3C4.8,3,3,4.8,3,7v10
	c0,2.2,1.8,4,4,4h10c2.2,0,4-1.8,4-4V7c0-2.2-1.8-4-4-4H7z"/>
<path d="M12,17c-1.1,0-2.1-0.3-3-1c-1.1-0.8-1.8-2-2-3.3C6.7,10,8.6,7.4,11.3,7c0.5-0.1,1-0.1,1.5,0c2.2,0.3,3.9,2,4.2,4.2l0,0
	c0.2,1.3-0.1,2.6-0.9,3.7c-0.8,1.1-2,1.8-3.3,2C12.5,16.9,12.3,17,12,17z M12,9c-0.1,0-0.3,0-0.4,0c-1.6,0.2-2.8,1.8-2.5,3.4
	c0.2,1.6,1.8,2.8,3.4,2.5c0.8-0.1,1.5-0.5,2-1.2s0.7-1.4,0.6-2.2l0,0c-0.2-1.3-1.2-2.3-2.5-2.5C12.3,9,12.2,9,12,9z"/>
<path d="M17.5,7.5c-0.3,0-0.5-0.1-0.7-0.3c-0.1-0.1-0.2-0.2-0.2-0.3c-0.1-0.1-0.1-0.2-0.1-0.4c0-0.3,0.1-0.5,0.3-0.7
	c0.4-0.4,1-0.4,1.4,0c0.2,0.2,0.3,0.4,0.3,0.7c0,0.1,0,0.3-0.1,0.4s-0.1,0.2-0.2,0.3C18,7.4,17.8,7.5,17.5,7.5z"/>
</svg>
