<svg xmlns="http://www.w3.org/2000/svg" width="33.93" height="26.16" viewBox="0 0 33.928 26.16" aria-labelledby="audio-on-title" role="img">
	<title id="audio-on-title">Audio on</title>
  	<path d="M18.83 13.05V1.5c0-1.3-.94-1.88-2.08-1.24-.52.3-1.02.65-1.48 1.03-2.3 1.8-4.57 3.7-6.84 5.6-.24.2-.47.3-.8.3-2.15-.1-4.3 0-6.46 0C.27 7.2 0 7.5 0 8.4v9.5c0 .8.3 1.1 1.1 1.1 2.23 0 4.45.02 6.68 0 .34 0 .6.1.85.33 1.8 1.52 3.58 3.04 5.4 4.53.87.7 1.77 1.4 2.72 1.98 1 .63 1.82.23 2.05-.9.03-.13.03-.28.03-.42v-11.5zm15.1 0v-1.3c-.3-3.4-1.52-6.46-3.42-9.27-.4-.65-1.4-.73-2-.36-.3.25-.4.57-.2.93.1.18.3.36.4.54 3.2 4.9 3.9 10.1 1.7 15.7-.5 1.2-1.3 2.4-1.9 3.6-.2.4-.2.6 0 .9.5.5 1.7.4 2.1-.2C32.7 20.4 34 16.9 34 13zm-5.05-.02c0-2.14-.5-4.18-1.45-6.1-.33-.67-.9-.94-1.6-.77-.77.18-.96.6-.62 1.28 1.2 2.4 1.6 4.9 1.2 7.52-.2 1.34-.6 2.6-1.2 3.8-.1.28-.2.53.1.78.5.62 1.8.5 2.2-.24 1-1.97 1.56-4.05 1.58-6.27zm-4.97.15c.1-1.17-.1-2.17-.4-3.16-.3-.9-1.3-1.25-2.1-.72-.3.2-.4.45-.3.8.7 1.94.7 3.9 0 5.85 0 .2 0 .5.1.63.4.4.8.46 1.3.38.5-.08.8-.32 1-.8.3-1.02.5-2.05.5-2.98z"/>
 	<path clip-rule="evenodd" d="M18.83 13.05v11.5c0 .14 0 .28-.02.4-.2 1.14-1 1.54-2 .92-.9-.6-1.8-1.28-2.7-2-1.8-1.48-3.6-3-5.4-4.52-.2-.22-.5-.33-.8-.33-2.2.02-4.4 0-6.6 0-.8 0-1.1-.3-1.1-1.1v-9.5c0-.9.27-1.17 1.16-1.17h6.4c.33 0 .56-.1.8-.3 2.27-1.9 4.55-3.8 6.84-5.67.4-.38.9-.72 1.4-1.02 1.15-.64 2.1-.06 2.1 1.24v11.56zm15.1 0c0 3.92-1.3 7.42-3.5 10.6-.43.6-1.56.67-2.07.16-.25-.2-.23-.5-.02-.9.67-1.2 1.45-2.3 1.97-3.6 2.3-5.5 1.6-10.7-1.6-15.7-.1-.2-.2-.3-.3-.5-.2-.3-.1-.7.2-.9.6-.3 1.6-.3 2 .4 1.9 2.8 3.2 5.9 3.4 9.3.1.1.1.1.1.2v1.1z"/>
  	<path clip-rule="evenodd" d="M28.88 13.03c-.02 2.22-.55 4.3-1.54 6.27-.37.72-1.66.86-2.18.24-.22-.25-.18-.5-.04-.78.6-1.2 1.02-2.46 1.24-3.8.4-2.63 0-5.13-1.15-7.52-.3-.7-.1-1.1.7-1.28.7-.17 1.3.1 1.6.76 1 1.93 1.5 3.97 1.5 6.1zm-4.98.15c.02.93-.18 1.96-.48 3-.14.47-.46.7-.93.78-.5.08-1 .02-1.3-.38-.2-.14-.2-.44-.2-.62.6-1.96.6-3.9 0-5.87-.1-.4 0-.6.3-.8.8-.6 1.8-.2 2.1.7.3 1 .4 2 .4 3.1z"/>
</svg>
