<svg xmlns="http://www.w3.org/2000/svg" xmlns:xlink="http://www.w3.org/1999/xlink" version="1.1" id="Layer_1" x="0px" y="0px" width="33.928px" height="26.16px" viewBox="0 0 33.928 26.16" enable-background="new 0 0 33.928 26.16" xml:space="preserve" aria-labelledby="audio-off">
	<g>
	<path d="M18.832,12.987c0-3.845,0.003-7.689-0.002-11.534c-0.001-1.32-0.945-1.894-2.083-1.25   c-0.52,0.294-1.017,0.642-1.479,1.021C12.978,3.104,10.701,5,8.428,6.899C8.189,7.1,7.958,7.197,7.641,7.195   C5.482,7.183,3.323,7.188,1.165,7.189c-0.892,0-1.164,0.271-1.164,1.166C0,11.522,0,14.69,0,17.857c0,0.806,0.302,1.11,1.108,1.11   c2.223,0.001,4.445,0.007,6.668-0.007c0.345-0.002,0.597,0.105,0.855,0.324c1.792,1.521,3.581,3.045,5.4,4.531   c0.869,0.709,1.769,1.392,2.717,1.988c0.994,0.625,1.82,0.224,2.056-0.901c0.029-0.136,0.026-0.279,0.026-0.419   C18.832,20.651,18.832,16.819,18.832,12.987z"></path>
	<path clip-rule="evenodd" d="M18.832,12.987c0,3.832,0,7.664-0.001,11.496   c0,0.14,0.002,0.283-0.026,0.419c-0.236,1.125-1.062,1.526-2.056,0.901c-0.948-0.596-1.848-1.279-2.717-1.988   c-1.82-1.486-3.609-3.01-5.4-4.531c-0.258-0.219-0.51-0.326-0.855-0.324c-2.223,0.015-4.445,0.008-6.668,0.007   C0.302,18.967,0,18.663,0,17.857c0-3.167,0-6.335,0.001-9.503c0-0.894,0.272-1.166,1.164-1.166c2.158,0,4.317-0.006,6.476,0.006   C7.958,7.197,8.189,7.1,8.428,6.899c2.273-1.9,4.55-3.795,6.839-5.675c0.462-0.379,0.959-0.727,1.479-1.021   c1.138-0.644,2.082-0.07,2.083,1.25C18.834,5.298,18.832,9.143,18.832,12.987z"></path>
	</g>
	<path d="M29.549,13.018l3.939-3.939c0.586-0.585,0.586-1.536,0-2.121c-0.586-0.586-1.535-0.586-2.121,0l-3.939,3.939  l-3.939-3.939c-0.586-0.586-1.535-0.586-2.121,0c-0.586,0.585-0.586,1.536,0,2.121l3.939,3.939l-3.939,3.939  c-0.586,0.585-0.586,1.536,0,2.121c0.293,0.293,0.677,0.439,1.061,0.439s0.768-0.146,1.061-0.439l3.939-3.939l3.939,3.939  c0.293,0.293,0.677,0.439,1.061,0.439s0.768-0.146,1.061-0.439c0.586-0.585,0.586-1.536,0-2.121L29.549,13.018z"></path>
</svg>