<svg xmlns="http://www.w3.org/2000/svg" width="33.93" height="26.16" viewBox="0 0 33.928 26.16" aria-labelledby="audio-off-title" role="img">
	<title id="audio-off-title">Audio off</title>
  	<path d="M18.83 13V1.44c0-1.32-.94-1.9-2.08-1.25-.52.3-1.02.6-1.48 1-2.3 1.9-4.57 3.8-6.84 5.7-.24.2-.47.3-.8.3-2.15-.1-4.3 0-6.46 0C.27 7.2 0 7.4 0 8.3v9.5c0 .8.3 1.12 1.1 1.12h6.7c.34 0 .6.1.85.3 1.8 1.53 3.58 3.06 5.4 4.54.87.7 1.77 1.4 2.72 2 1 .62 1.82.22 2.05-.9.03-.14.03-.3.03-.43v-11.5z"/>
  	<path clip-rule="evenodd" d="M18.83 13v11.48c0 .14 0 .3-.02.42-.2 1.13-1 1.53-2 .9-.9-.6-1.8-1.28-2.7-1.98-1.8-1.5-3.6-3-5.4-4.54-.23-.2-.5-.32-.82-.32H1.1c-.8 0-1.1-.3-1.1-1.1v-9.5c0-.9.27-1.17 1.16-1.17 2.16 0 4.32-.1 6.48 0 .32 0 .55-.1.8-.3 2.26-1.9 4.54-3.8 6.83-5.7.46-.4.96-.7 1.48-1 1.13-.7 2.08-.1 2.08 1.2V13z"/>
  	<path d="M29.55 13.02l3.94-3.94c.5-.6.5-1.54 0-2.12-.6-.6-1.6-.6-2.2 0l-3.9 3.94-3.97-3.94c-.6-.6-1.55-.6-2.13 0-.6.58-.6 1.53 0 2.12l3.95 3.94-3.94 3.94c-.6.58-.6 1.53 0 2.12.3.3.7.44 1.08.44s.76-.15 1.05-.44l3.93-3.94 3.9 3.94c.3.3.7.44 1.06.44s.78-.15 1.07-.44c.57-.6.57-1.54 0-2.12l-3.96-3.94z"/>
</svg>
