<svg xmlns="http://www.w3.org/2000/svg" width="48" height="48" viewBox="-9 -9 48 48" aria-labelledby="close-title" role="img">
	<title id="close-title">Close this</title>
  	<path d="M37.88 32.5L20.38 15l17.5-17.5c1.5-1.5 1.5-3.9 0-5.38-1.48-1.5-3.9-1.5-5.38 0L15 9.62-2.5-7.88c-1.5-1.5-3.9-1.5-5.38 0-1.5 1.48-1.5 3.9 0 5.38L9.62 15-7.9 32.5c-1.5 1.5-1.5 3.9 0 5.38.74.75 1.7 1.12 2.7 1.12s1.94-.37 2.68-1.12L15 20.38l17.5 17.5c.74.75 1.72 1.12 2.7 1.12s1.94-.37 2.68-1.12c1.5-1.48 1.5-3.9 0-5.38z"/>
</svg>
