<svg width="26" height="30" viewBox="0 0 26 30" xmlns="http://www.w3.org/2000/svg" xmlns:xlink="http://www.w3.org/1999/xlink">
  <title>
    Group
  </title>
  <g style="mix-blend-mode:multiply">
    <use xlink:href="#path0_fill" transform="translate(0 .031)" fill="#DDDCDC"/>
    <use xlink:href="#path1_fill" transform="translate(.001 .198)" fill="url(#paint1_linear)"/>
    <use xlink:href="#path2_fill" transform="translate(10.516 .198)" fill="#DDDCDC"/>
    <use xlink:href="#path3_fill" transform="translate(11.567 .198)" fill="url(#paint3_linear)"/>
    <g>
      <use xlink:href="#path4_fill" transform="translate(10.562 14.014)" fill="#B4B4B5"/>
      <use xlink:href="#path5_fill" transform="translate(.128 25.468)" fill="#B4B4B5"/>
    </g>
    <g>
      <use xlink:href="#path6_fill" transform="translate(3.575)"/>
    </g>
    <g>
      <use xlink:href="#path7_fill" transform="translate(10.749 .791)" fill="#323232"/>
    </g>
  </g>
  <defs>
    <linearGradient id="paint1_linear" x2="1" gradientUnits="userSpaceOnUse" gradientTransform="matrix(3.68671 3.71335 -3.6867 3.71336 3.956 -.445)">
      <stop offset="0" stop-color="#B4B4B5"/>
      <stop offset=".277" stop-color="#B9B9B9"/>
      <stop offset=".638" stop-color="#C7C7C7"/>
      <stop offset="1" stop-color="#DDDCDC"/>
    </linearGradient>
    <linearGradient id="paint3_linear" x2="1" gradientUnits="userSpaceOnUse" gradientTransform="scale(8.25327 8.31293) rotate(45 .596 .242)">
      <stop offset="0" stop-color="#B4B4B5"/>
      <stop offset=".394" stop-color="#B6B7B7"/>
      <stop offset=".631" stop-color="#BEBDBD"/>
      <stop offset=".825" stop-color="#CACAC9"/>
      <stop offset=".997" stop-color="#DCDCDB"/>
      <stop offset="1" stop-color="#DDDCDC"/>
    </linearGradient>
    <path id="path0_fill" d="M7.01.442L3.575 0 0 3.53v.185l.939.185c1.163.216 1.398 1.017 1.398 6.594v12.51c0 1.98.085 3.357-.027 4.32L0 29.784v.185c2.103-.154 10.33-.185 12.625-.03l3.522-3.532-9.136-.97V.442z"/>
    <path id="path1_fill" d="M2.183 8.648l5.644-5.566V0H3.575L0 3.54l2.183 5.108z"/>
    <path id="path2_fill" d="M1.052 0h5.976l6.524 13.768-3.604 3.593c-1.698 1.696-4.56 2.635-8.47 2.635-.183 0-1.244.007-1.478-.054v-.38l3.737-3.583.599.108c.16-.926.104-2.056.104-3.418v-2.033c0-4.993-.935-6.893-3.388-6.893V0z"/>
    <path id="path3_fill" d="M2.87 8.763l4.831-4.945L5.655 0H0v3.766l2.87 4.997z"/>
    <path id="path4_fill" d="M7.223 2.207l-3.5.388L0 6.125c.234.062 1.271.062 1.455.062 3.91 0 6.749-.932 8.447-2.628l.03.002L13.48 0 7.223 2.207z"/>
    <path id="path5_fill" d="M12.561 4.501l3.5-3.53L6.929 0 3.48 1.002 0 4.532c2.278-.154 10.267-.185 12.561-.03z"/>
    <path id="path6_fill" d="M2.6 19.505c0 5.578-.367 6.379-1.53 6.594L0 26.284v.185c2.294-.154 10.28-.185 12.574-.03v-.216l-1.377-.185c-1.162-.154-1.958-.925-1.958-6.533V.493c.887-.03 2.142-.061 2.447-.061 2.417 0 3.457 1.879 3.457 6.871v2.034c0 4.992-1.04 6.902-3.395 6.902-.214 0-.734 0-1.071-.062v.432c.367.061 1.162.061 1.346.061 7.006 0 10.402-2.988 10.402-8.011v-.647C22.425 2.989 18.998 0 11.93 0 10.77 0 6.853.154 5.568.154 4.467.154 1.254.124 0 .031v.185L1.07.4C2.234.616 2.6 1.417 2.6 6.995v12.51"/>
    <path id="path7_fill" d="M1.168 0v18.714c0 3.19.348 5.087.973 6.138l-1.278-.01C.242 23.79 0 21.896 0 18.715V.034C.467.024.701.012 1.168 0zm6.989.242c2.78.96 4.93 3.086 4.93 6.978v.648c0 2.32-.654 4.114-2.185 5.335-.816.65-1.78 1.3-3.017 1.734 1.787-.3 3.22-.878 4.293-1.734 1.531-1.22 2.31-3.016 2.31-5.335V7.22c0-4.45-3.014-6.308-6.331-6.978z"/>
  </defs>
</svg>
