<svg version="1.1" class="logo__svg" x="0" y="0" viewBox="0 0 165 153.8" enable-background="new 0 0 165 153.8" xml:space="preserve">
  <path d="M16.6 75.3c0-22.6 0-45.3 0-67.9 0-4.2-5.5-6.2-10.7-4 -0.6 0.3-1 0.9-1.6 1.1 -1.2 0.5-2.6 1.1-3.7 0 -0.9-0.8-0.5-1.9-0.3-2.8C0.5-0.1 2-0.1 3.3 0c8.1 0.8 16.3 0.1 24.5 0.2 29.5 0.2 58.9 0.3 88.4 0.6 16.1 0.2 30.1 5.2 40.6 18.5 11.3 14.4 10 37.7 1.6 48.9 -9.2 12.2-21.5 18.6-36.7 19.1 -12 0.4-24 0.3-36 0.2 -4.5-0.1-5.9 1.4-5.7 6 0.4 16.3 0.5 32.7 0.3 49 0 4.7 1.7 6.3 6.1 6.1 2.8-0.2 5.7-0.2 8.5-0.1 1.6 0.1 4-0.1 3.9 2.1 -0.1 2.1-2.2 3.4-4.5 3 -21.3-3.6-42.8-1.2-64.2-2 -8.1-0.3-16.3 0-24.4 1.1 -2 0.3-4.8 0.9-4.9-2.5 0-3.4 2.7-3.2 5.1-3 11.3 0.9 11.3 0.9 11.3-10.5 0-20.5 0-41 0-61.5C16.9 75.3 16.8 75.3 16.6 75.3zM66.1 23.4L66 23.3 66.1 23.4c0.9 1.7 1.6 3.8 3.8 4.5 0.1 0 0.8-0.7 0.8-1C70.4 24.1 67.9 24.2 66.1 23.4zM43 8.6C43 8.5 43 8.5 43 8.6c0.3 0.3 0.5 0.8 0.8 1.1 1.1 1.3 1.3 3.5 3.7 3.2 0.3 0 0.7-1.1 0.6-1.6 -0.3-2.4-2.5-2.1-4.1-2.5C43.6 8.6 43.3 8.6 43 8.6zM123.2 72.3c-0.3 0-0.5-0.9-0.8 0C122.6 72.2 122.9 72.2 123.2 72.3c-0.7 3.2 2.1 4.4 3.8 6.2 0.7 0.7 1.8 2 2.8 0.6 0.8-1.1 0.6-2.6-0.7-3.4C127.3 74.3 125.5 72.9 123.2 72.3zM44.2 63.3c-0.3 0-0.4-0.8-0.8-0.1C43.7 63.2 44 63.2 44.2 63.3c-0.4 3.2 2.5 4.6 3.9 6.9 0.4 0.7 1.2 1.3 2.1 0.8 1.1-0.5 0.9-1.6 0.7-2.6C50 65.1 46.7 64.7 44.2 63.3zM38.1 28.3l-0.1 0L38.1 28.3c0.2 4.3 3.3 7.2 5 10.7 0.4 0.9 1 2.6 2.4 1.7 1-0.6 0.8-2.2 0.1-3.2C43.2 34.4 40.6 31.4 38.1 28.3zM42.1 80.3l-0.1 0L42.1 80.3c0.6 3.2 3.1 5.1 4.7 7.5 0.7 1 1.4 2.4 3 2.1 0.5-0.1 0.9-0.9 1.1-1.5 0.4-1.6-0.2-2.9-1.6-3.7C46.8 83.2 44.5 81.7 42.1 80.3zM123.2 58.2l-0.2 0.1L123.2 58.2c0 3.7 3 5.8 4.7 8.5 0.7 1.1 1.7 2.6 3.1 1.4 1.3-1.1 1-3-0.1-4C128.5 61.9 126.6 59 123.2 58.2zM130.1 55.4l-0.1-0.2L130.1 55.4c1.5 2.5 3.1 5 5.6 6.7 1 0.6 1.8 2.7 3.2 1.1 1.2-1.3 0.4-2.9-0.9-3.9C135.7 57.4 133 56.1 130.1 55.4zM38.1 65.3l-0.2 0L38.1 65.3c0.6 5 3.4 8.9 6.5 12.5 0.6 0.8 1.5 1.3 2.6 0.6 0.7-0.4 1.1-1.1 0.7-1.6C44.8 72.7 43 67.6 38.1 65.3zM79.9 43.7c0 0 0.1 0 0.1 0 0 12.1 0.1 24.3-0.1 36.4 0 3.6 0.9 5.1 4.8 4.9 4.6-0.3 9.3-0.1 14 0 3.2 0.1 4.6-1.1 4.5-4.3 -0.1-4.5-0.1-9-0.1-13.5 0-19.9 0-39.8 0.1-59.8 0-2.9-1-4.2-4.1-4.2 -5 0.1-10 0-15-0.4 -3.4-0.2-4.4 1.3-4.4 4.3C79.9 19.4 79.9 31.5 79.9 43.7zM26.4 8.1c-0.2 2.6-0.3 4.2-0.3 5.8 0 38.9 0.1 77.9 0.1 116.8 0 3.5 0.1 7 0.1 10.5 0 1.3 0.5 2.2 1.9 2.4 1.9 0.2 3.7 0.2 5.3-0.9 1.4-0.9 0.2-2.1-0.2-3.1 -1.3-2.9-2.7-5.7-3.9-8.6 -0.6-1.5-0.7-3.5 1.2-3.6 6.6-0.3 3.8-3.2 2.1-6.3 -1.4-2.5-2.3-5.2-3.4-7.8 -1-2.4-1.2-4.2 2.3-4.4 3.9-0.3 3.8-2.5 2-5.1 -1.9-2.8-3.1-5.8-4.1-8.9 -0.5-1.6-0.9-3.3 1-3.7 5.2-0.9 3.3-3.4 1.8-6.2 -1.3-2.5-2.2-5.2-3.6-7.7 -1.1-2-0.3-3.7 1.4-4 4.9-1 3.4-3.7 2.1-6.5 -1-2.1-1.9-4.2-3.1-6.2 -1.8-3-1.3-4.7 2.4-5 4-0.3 3.6-2.3 2-5 -1.7-2.8-3.3-5.8-4.8-8.7 -1-1.9-1-3.8 1.6-4.2 5.7-0.8 4.2-3.5 2-6.6 -1-1.5-1.7-3.2-2.7-4.8 -2-3.1-2.2-5.2 2.4-5.6 1.5-0.1 4-0.7 2-3C31.4 15 30.2 11.2 26.4 8.1zM112.4 9.5c-0.5 1.2-0.9 1.6-0.9 2.1 -1.5 21.4-1 42.8-0.7 64.2 0 1.6 0.2 3.3 2.1 3.4 1.9 0.2 4.3 0.4 5.6-1.4 1-1.4-0.7-2.7-1.5-3.8 -2.3-3-4.3-5.7 1.6-6.8 2.9-0.5 2.3-2.2 1-4 -1.7-2.4-3.5-4.8-4.9-7.4 -0.8-1.3-1.6-3.4 1.2-3.7 5.6-0.6 4.6-3.3 2.1-6.5 -1.1-1.4-2.2-2.9-3.1-4.4 -1.7-2.6-2.2-4.9 2-5.6 3.4-0.6 3.6-2.1 1.4-4.7 -0.7-0.8-1.2-1.9-2-2.7 -3.9-4.4-3.8-5.2 1.8-7.1 3-1 4-2.2 1.4-4.7C117.1 14.3 114.9 12.1 112.4 9.5zM35.4 115.5c2 4.8 3.5 8.6 5.3 12.3 0.5 1.1 2 1.8 3 2.6 0.6-1.5 2.2-2.6 1.6-4.5 -0.3-0.9-0.8-1.8-1.5-2.5C41.5 120.8 39.3 118.1 35.4 115.5zM37.8 46.4c2.2 5.6 4.7 11 9.4 15.2C47.9 54.3 41.5 51.1 37.8 46.4zM46 21.4c-1.4-5.6-5.5-9.5-9.1-13.7C40.1 12.2 40.5 18.5 46 21.4zM122 27.9c1 3 2.4 5 4.4 6.8 1.2 1 2.3 2.3 3.6 0.6 1.1-1.4 0.4-2.9-0.9-3.9C127.2 29.8 125.1 28.5 122 27.9zM36.1 83.1c1.8 3.3 3.5 6.7 5.4 9.9 0.6 1.1 1.5 2.6 3.1 1.4 1.3-1 0.7-2.4-0.1-3.6C42.5 87.6 39.8 84.8 36.1 83.1zM122.2 41.8c-0.3 0.3-0.7 0.6-1 0.9 1.8 2.3 3.4 4.7 5.3 6.8 0.9 1 1.6 3.6 3.5 1.7 1.5-1.5 0.5-3.6-1-4.7C126.9 44.6 124.5 43.3 122.2 41.8zM37.6 98.8c-0.3 0.3-0.7 0.6-1 0.8 1.6 3.1 3.1 6.2 4.8 9.2 0.6 1 1.2 2.9 2.9 1.8 1.3-0.8 0.9-2.3 0.3-3.6C42.9 103.6 39.5 101.9 37.6 98.8zM43.8 115.6c1.8 2.5 3.5 5.1 5.3 7.6 0.8 1 2 2.1 3.3 0.8 1.2-1.1 0.5-2.4-0.4-3.5C49.9 118.1 46.9 116.9 43.8 115.6zM36.4 135c2.3 3.9 3.9 6.7 5.7 9.4 0.6 0.9 1.3 2.3 2.7 1.2 1.3-1 1.2-2.3 0-3.4C42.5 140 40.6 137.3 36.4 135zM128.8 23c1.1 2.8 3.3 4.2 5.2 6 1 0.9 2.2 2.1 3.2 0.6 0.9-1.3 0.4-2.9-1.2-3.7C133.8 24.7 131.7 23.1 128.8 23zM127.7 39.9c2.5 2.6 4.4 4.7 6.4 6.7 0.8 0.8 1.8 1.9 2.9 0.8 1.3-1.3 0.7-3-0.7-3.8C133.8 42.2 131.7 40 127.7 39.9zM50.9 142.1c1-0.4 1.9-0.8 1.8-2.1 -0.1-3.9-3.8-3.9-6.1-5.4 -0.7-0.5-1.7 0.5-1.3 1.4C46.3 138.7 48.4 140.5 50.9 142.1zM44.1 27c1.1 2.7 2.1 5.6 5.1 6.8 1 0.4 0.9-0.9 0.9-1.7C50.2 28.1 46.6 28.3 44.1 27zM44.3 97.6c-0.2 0.2-0.5 0.5-0.7 0.7 1.6 2.1 3.1 4.3 4.7 6.4 0.8 1 1.9 2.3 3.2 0.8 1-1.1 0.5-2.6-0.7-3.5C48.7 100.5 46.5 99.1 44.3 97.6zM118.9 9c2.1 2.5 3.4 4.2 4.8 5.7 0.8 0.9 1.9 1.7 2.9 0.4 0.7-1 0.5-2.3-0.6-3.1C124.3 10.7 122.5 9.6 118.9 9zM62.6 38.7c1.2 3.4 3.2 5.2 6.1 6.1 0.1 0 0.8-0.7 0.7-1.1C68.8 40.5 66.3 39.5 62.6 38.7zM56.2 134.7c1.8 2.4 3 4.1 4.4 5.7 0.7 0.8 1.6 1.2 2.6 0.4 1-0.8 0.5-1.8-0.1-2.6C61.5 136.5 59.4 135.6 56.2 134.7zM54 97.7c0.6 0.9 0.8 1.5 1.3 1.9 1.1 1.1 1.7 2.9 3.6 3 0.7 0 1-0.7 0.9-1.5 -0.2-2-1.8-2.6-3.3-3.2C55.9 97.7 55.2 96.9 54 97.7zM65.9 95.9c1.7 1.5 1.6 4.4 4.2 5 0.7 0.1 1.3-0.6 1.1-1.3C70.7 97 68.1 96.7 65.9 95.9zM43.5 44.8c1 3 2.3 4.8 4 6.2 0.6 0.5 1.3 1.1 2.1 0.4 0.7-0.6 0.5-1.6 0.1-2.3C48.6 47.1 46.4 46.2 43.5 44.8zM54 22.6c1 3.3 2.2 5 4.4 5.7 0.2 0.1 1.2-1.1 1.1-1.4C58.8 24.7 56.8 23.9 54 22.6zM65.5 76.6c1 2 1.5 4.4 4.1 5 0.3 0.1 1-0.6 1-0.8C70.2 78 67.2 78.1 65.5 76.6zM54.8 43.9c1.1 1.9 1.9 4.2 4.4 4.8 0.3 0.1 1.2-0.9 1.2-1.2 -0.6-2.7-3.3-2.8-5.1-3.9C55.2 43.6 55 43.8 54.8 43.9zM131.7 72.4c1.6 1.6 2.1 4.4 5 4.6 0.2 0 0.7-0.9 0.6-1.1C136.4 73.6 134.6 72.3 131.7 72.4zM56.8 117.9c0.6 2.3 1.6 4.4 4.1 4.9 0.2 0 0.8-0.7 0.8-1C61.7 118.6 58.9 118.8 56.8 117.9zM65.8 60.5c1.2 1.6 1.6 3.9 3.9 4.4 0.2 0 0.8-0.7 0.8-1.1C70.2 61.2 68.1 60.8 65.8 60.5zM67.9 134.3c0.8 1.6 1.4 3.4 3.8 3.9C71.9 135.4 70.1 134.7 67.9 134.3zM54.6 79.5c0.7 1.9 1.4 3.7 3.4 4.3 0.1 0 0.8-0.7 0.7-1C58.7 80.3 56.7 79.9 54.6 79.5zM56.3 63c1.2 1.5 1.7 3.7 4 3.8 0.2 0 0.7-0.8 0.6-1.2C60.2 63.5 58.5 62.8 56.3 63zM131.6 10.7c0.4 2.4 1.6 3.6 3.4 4.1 0.9 0.3 1.2-0.7 1-1.3C135.2 11.8 133.6 11.3 131.6 10.7z"></path>
</svg>