<svg xmlns="http://www.w3.org/2000/svg" width="45" height="45" viewBox="465.063 205.02 45 45" aria-labelledby="search-title" role="img">
	<title id="search-title">Search</title>
  	<path d="M504.97 234.77c6.8-6.8 6.8-17.86 0-24.65-6.8-6.8-17.86-6.8-24.66 0-5.9 5.93-6.65 15.1-2.23 21.87l-11.96 11.93c-1.4 1.38-1.37 3.63 0 5.02 1.4 1.4 3.66 1.4 5.05.02L483.1 237c6.74 4.44 15.92 3.68 21.86-2.25zm-20.95-3.7c-4.75-4.76-4.75-12.5 0-17.25s12.5-4.75 17.24 0c4.75 4.76 4.75 12.5 0 17.24-4.75 4.76-12.5 4.76-17.24 0z"/>
</svg>
