<?xml version="1.0" encoding="utf-8"?>
<!-- Generator: Adobe Illustrator 16.0.0, SVG Export Plug-In . SVG Version: 6.00 Build 0)  -->
<!DOCTYPE svg PUBLIC "-//W3C//DTD SVG 1.1//EN" "http://www.w3.org/Graphics/SVG/1.1/DTD/svg11.dtd">
<svg version="1.1" id="Layer_1" xmlns="http://www.w3.org/2000/svg" xmlns:xlink="http://www.w3.org/1999/xlink" x="0px" y="0px"
	 width="360px" height="70px" viewBox="0 0 360 70" enable-background="new 0 0 360 70" xml:space="preserve">
<g>
	<path d="M51.434,55.713c-5-0.35-12-0.35-17.001,0v-0.25l1.65-0.351c2.05-0.449,2.6-1.699,2.6-11.8V14.06h-1.5
		c-4.05,0-5.45,2.05-9.9,10.551l-2.4,4.6h-0.25c0.6-6.4,0.8-9.3,1-16.051l0.1-0.1c3.601,0.3,6.4,0.5,9.951,0.5h15.251
		c4.65,0,9.951-0.85,14.151-2.25l0.1,0.1v15.751h0.1l1.05-0.95c3.75-3.4,5.951-4.4,8.101-4.4c3.9,0,6.5,2.45,6.5,7.15v9.351
		c0,9.601,0.85,11.251,3.1,11.951l0.65,0.2v0.25c-4.7-0.351-9.3-0.351-14,0v-0.25l0.55-0.15c1.65-0.45,2.2-1.851,2.2-12.001v-8.75
		c0-2.7-1.05-3.951-3.3-3.951c-0.85,0-1.95,0.3-3.5,1.1l-1.45,0.75v10.851c0,10.15,0.55,11.551,2.2,12.001l0.55,0.15v0.25
		c-4.7-0.351-9.3-0.351-14,0v-0.25l0.65-0.2c2.25-0.7,3.1-2.351,3.1-11.951V19.811c-2.35-4.7-5.35-5.75-9-5.75h-1.5v29.252
		c0,10.101,0.55,11.351,2.6,11.8l1.65,0.351V55.713z M53.934,55.463h54.503v0.25H53.934V55.463z M98.387,51.062
		c-8.601,0-12.951-5.15-12.951-14.4v-0.45c0-9.001,4.351-14.401,12.951-14.401c6.8,0,11.05,3.15,11.05,12.351v0.551h-15v0.5v2.45
		c0,9.601,1.85,11.65,6.35,11.65c3,0,5.951-1.5,7.951-3.9l1.2-1.45l0.2,0.15l-1.15,1.5C106.687,48.612,102.837,51.062,98.387,51.062
		z M94.437,34.212h7.3v-1.7c0-8.801-1.55-10.201-3.65-10.201C96.037,22.311,94.536,23.611,94.437,34.212z M128.438,55.713
		c-5-0.35-12.501-0.35-17.501,0v-0.25l1.65-0.351c2.05-0.449,2.6-1.699,2.6-11.8V25.661c0-10.101-0.55-11.501-2.6-11.851l-1.65-0.3
		v-0.25c2.7,0.2,6.35,0.3,8.75,0.3c2.85,0,5.55-0.3,8.05-0.3c9.701,0,15.301,4.55,15.301,13.151v0.6
		c0,8.601-5.55,13.151-15.151,13.151c-0.4,0-1.35,0-2.15-0.101v-0.5c0.75,0.101,1.65,0.101,2,0.101c3.9,0,5.8-3.25,5.8-11.901v-2.2
		c0-8.65-1.9-11.901-5.95-11.901c-0.8,0-2.55,0.05-3.9,0.15v29.502c0,10.101,0.55,11.45,2.6,11.8l2.15,0.351V55.713z
		 M130.938,55.463h146.859v0.25H130.938V55.463z M147.29,43.912v-8.7c0-8.601-0.4-11.001-1.8-11.301l-0.45-0.1v-0.25
		c3.6-0.35,5.05-0.65,9.65-1.75l0.1,0.1v21.402c0,2.7,1.05,3.95,3.3,3.95c0.85,0,1.95-0.301,3.5-1.101l1.449-0.75v-10.2
		c0-8.601-0.85-10.501-3.1-11.201l-0.65-0.2v-0.25c4.251-0.35,6.551-0.65,11.151-1.75l0.1,0.1v15.751c0,8.601,0.85,10.5,3.101,11.2
		l0.649,0.2v0.25c-4.25,0.35-6.25,0.65-10.851,1.75l-0.1-0.1l-0.25-5.251h-0.101l-1.1,0.95c-3.8,3.301-5.951,4.4-8.101,4.4
		C149.89,51.062,147.29,48.612,147.29,43.912z M175.491,36.762v-0.65c0-9.8,5.051-14.301,13.251-14.301c1.55,0,2.9,0.45,4.4,1.25
		l0.75,0.4h0.1v-0.3c0-7.6-0.85-8.95-3.1-9.65l-0.65-0.2v-0.25c4.25-0.35,6.551-0.65,11.15-1.75l0.101,0.1v26.252
		c0,8.601,0.85,10.5,3.1,11.2l0.65,0.2v0.25c-4.25,0.35-6.25,0.65-10.851,1.75l-0.101-0.1l-0.25-5.251h-0.1l-1.1,0.95
		c-3.801,3.301-5.951,4.4-8.101,4.4C179.241,51.062,175.491,45.912,175.491,36.762z M192.542,46.162l1.45-0.75V34.111
		c0-9-2-11.801-5-11.801s-5,4.25-5,13.301v1.65c0,7.601,2.25,10.001,4.899,10.001C189.893,47.263,190.992,46.962,192.542,46.162z
		 M206.443,36.762v-0.65c0-9.8,5.05-14.301,13.251-14.301c1.55,0,2.899,0.45,4.4,1.25l0.75,0.4h0.1v-0.3c0-7.6-0.85-8.95-3.101-9.65
		l-0.649-0.2v-0.25c4.25-0.35,6.55-0.65,11.15-1.75l0.1,0.1v26.252c0,8.601,0.851,10.5,3.101,11.2l0.65,0.2v0.25
		c-4.251,0.35-6.251,0.65-10.851,1.75l-0.101-0.1l-0.25-5.251h-0.1l-1.101,0.95c-3.8,3.301-5.95,4.4-8.101,4.4
		C210.193,51.062,206.443,45.912,206.443,36.762z M223.494,46.162l1.45-0.75V34.111c0-9-2-11.801-5-11.801
		c-3.001,0-5.001,4.25-5.001,13.301v1.65c0,7.601,2.25,10.001,4.9,10.001C220.844,47.263,221.944,46.962,223.494,46.162z
		 M237.095,50.463l0.551-0.15c1.649-0.45,2.199-1.851,2.199-12.001v-3.1c0-8.601-0.85-10.501-3.1-11.201l-0.65-0.2v-0.25
		c4.251-0.35,6.551-0.65,11.151-1.75l0.1,0.1v16.401c0,10.15,0.55,11.551,2.2,12.001l0.55,0.15v0.25
		c-4.351-0.351-8.65-0.351-13.001,0V50.463z M238.995,15.46c0-2.25,1.8-4.2,4.601-4.2c2.8,0,4.6,1.95,4.6,4.2s-1.8,4.2-4.6,4.2
		C240.795,19.661,238.995,17.71,238.995,15.46z M250.996,50.463l0.649-0.2c2.251-0.7,3.101-2.351,3.101-11.951v-3.1
		c0-8.601-0.85-10.501-3.101-11.201l-0.649-0.2v-0.25c4.25-0.35,6.25-0.65,10.851-1.75l0.1,0.1l0.25,5.25h0.101l1.1-0.95
		c3.801-3.3,5.95-4.4,8.101-4.4c3.9,0,6.5,2.45,6.5,7.15v9.351c0,9.601,0.851,11.251,3.101,11.951l0.65,0.2v0.25
		c-4.7-0.351-9.301-0.351-14.001,0v-0.25l0.55-0.15c1.65-0.45,2.2-1.851,2.2-12.001v-8.75c0-2.7-1.05-3.951-3.3-3.951
		c-0.851,0-1.95,0.3-3.501,1.1l-1.449,0.75v10.851c0,10.15,0.55,11.551,2.199,12.001l0.551,0.15v0.25
		c-4.7-0.351-9.301-0.351-14.001,0V50.463z M294.698,58.562h-0.1c-12.251,0-14.801-1.699-14.801-3.55v-0.1
		c0-1.801,2.7-3.9,9.25-3.95h0.351c-1.2,0.8-1.801,2.45-1.801,3.6c0,1.801,2.051,3.5,7.001,3.5h0.1c7.001,0,9.751-2.35,9.751-4.2
		v-0.1c0-1.2-0.851-2.2-3.05-2.4l-12.251-1.2c-3.9-0.399-5.851-1.85-5.851-4.25v-0.1c0-1.65,0.95-3.4,4.3-5.45l2.7-1.65v-0.05
		c-5-1.101-7.9-3.9-7.9-8.051v-0.25c0-5.351,4.851-8.551,12.901-8.551c2.55,0,4.85,0.3,6.5,0.85l0.15-0.25
		c2.05-3.05,4.6-4.75,8.15-4.75h0.8v4.65h-5.55c-1.051,0-2.15,0.15-3.001,0.4l-0.35,0.1v0.05c3.95,1.3,6.2,3.9,6.2,7.5v0.25
		c0,5.351-4.851,8.551-12.9,8.551c-1.7,0-3.351-0.15-4.7-0.4l-0.5,0.5c-1.15,1.15-1.551,1.75-1.551,2.101
		c0,0.35,0.301,0.6,0.95,0.649l11.901,0.75c6.75,0.45,9.5,2.851,9.5,6.351v0.25C310.899,55.013,302.149,58.562,294.698,58.562z
		 M299.699,30.861v-0.75c0-5.25-1.25-7.801-4.4-7.801s-4.4,2.55-4.4,7.801v0.75c0,5.25,1.25,7.801,4.4,7.801
		S299.699,36.111,299.699,30.861z"/>
</g>
</svg>
