<?xml version="1.0" encoding="utf-8"?>
<!-- Generator: Adobe Illustrator 16.0.0, SVG Export Plug-In . SVG Version: 6.00 Build 0)  -->
<!DOCTYPE svg PUBLIC "-//W3C//DTD SVG 1.1//EN" "http://www.w3.org/Graphics/SVG/1.1/DTD/svg11.dtd">
<svg version="1.1" id="Layer_1" xmlns="http://www.w3.org/2000/svg" xmlns:xlink="http://www.w3.org/1999/xlink" x="0px" y="0px"
	 width="360px" height="70px" viewBox="0 0 360 70" enable-background="new 0 0 360 70" xml:space="preserve">
<g>
	<path d="M40.084,57.863H20.583v-0.601l2.5-0.25c1.55-0.149,2.25-0.95,2.25-6.9V16.561h-2.2c-3.15,0-5.55,1.6-9.551,8.25l-3.25,5.4
		h-0.75l1.05-17.151l12.251,0.5h20.351l12.751-2v15.901h0.4l0.9-1.25c2.25-3.1,4.601-4.4,7.901-4.4c5.3,0,8.05,2.3,8.05,7.801
		v13.701c0,5.7,0.65,6.25,2.25,6.45l1.5,0.2v0.6H60.985v-0.6l0.5-0.101c1.55-0.3,2.25-0.85,2.25-6.55V31.211
		c0-2.3-0.75-2.85-2.8-2.85c-0.7,0-1.55,0.05-2.75,0.2l-2.2,0.3v14.451c0,5.7,0.7,6.25,2.25,6.55l0.5,0.101v0.6H42.734v-0.6l1.5-0.2
		c1.6-0.2,2.25-0.75,2.25-6.45V22.061c-2.15-4.45-5-5.5-8.451-5.5h-2.2v33.552c0,5.95,0.7,6.7,2.25,6.9l2,0.25V57.863z
		 M44.084,56.363h58.804v1.5H44.084V56.363z M91.087,51.062c-8.851,0-12.101-3.9-12.101-13.15v-2.95
		c0-8.751,4.4-13.151,14.101-13.151c8.951,0,11.701,3.4,11.701,12.351v3.051H88.987v3c0,4.601,1.95,6.301,5.65,6.301
		c2.05,0,4.6-0.551,7.351-1.851l2.8-1.3v3.1l-2.1,1.351C98.938,50.213,94.987,51.062,91.087,51.062z M88.987,34.212h7.5v-2.65
		c0-4.75-0.6-5.75-3.75-5.75c-3.15,0-3.75,1-3.75,5.75V34.212z M126.389,57.863h-19.501v-0.601l2-0.25c1.55-0.2,2.25-0.95,2.25-6.9
		V21.311c0-5.95-0.7-6.7-2.25-6.9l-2-0.25v-0.6h20.251c11.451,0,15.101,5.601,15.101,12.451v2.45c0,6.851-3.65,12.451-15.101,12.451
		h-2.25v-3h0.95c3.75,0,4.9-2.551,4.9-9.001v-3.35c0-6.451-1.15-9-4.9-9h-4.2v33.552c0,5.95,0.7,6.751,2.25,6.9l2.5,0.25V57.863z
		 M130.389,56.363h159.76v1.5h-159.76V56.363z M153.741,51.263c-5.3,0-8.05-2.3-8.05-7.801V31.111c0-5.351-0.35-6.25-1.75-6.7
		l-0.75-0.25v-0.6l12.001-1.5v19.802c0,2.3,0.75,2.85,2.8,2.85c0.7,0,1.55-0.05,2.75-0.2l2.2-0.3V31.111c0-5.15-0.7-5.95-2.25-6.45
		l-1.5-0.5v-0.6l13.251-1.5v19.901c0,5.15,0.699,5.95,2.25,6.45l1.5,0.5v0.601l-12.601,1.5l-0.45-5.4h-0.4l-0.9,1.25
		C159.591,49.963,157.041,51.263,153.741,51.263z M187.743,51.263c-5.7,0-9.301-3.75-9.301-12.901v-3.649
		c0-9.151,3.601-12.901,9.301-12.901c3.3,0,5.5,0.65,7.9,3.2l0.899,0.95h0.4v-4.85c0-5.4-0.7-6.451-2.25-6.951l-1.5-0.5v-0.6
		l12.751-1.5v29.902c0,5.4,0.699,6.45,2.25,6.95l1.5,0.5v0.601l-12.101,1.5l-0.45-5.4h-0.4l-0.899,1.25
		C193.593,49.963,191.043,51.263,187.743,51.263z M195.243,44.512l1.7-0.3V34.111c0-4.851-0.7-5.75-4.25-5.75
		c-3.551,0-4.25,0.899-4.25,5.75v4.75c0,4.851,0.6,5.851,4.05,5.851C193.193,44.712,194.093,44.712,195.243,44.512z M221.245,51.263
		c-5.7,0-9.301-3.75-9.301-12.901v-3.649c0-9.151,3.601-12.901,9.301-12.901c3.3,0,5.5,0.65,7.9,3.2l0.9,0.95h0.399v-4.85
		c0-5.4-0.7-6.451-2.25-6.951l-1.5-0.5v-0.6l12.751-1.5v29.902c0,5.4,0.7,6.45,2.25,6.95l1.5,0.5v0.601l-12.101,1.5l-0.45-5.4h-0.4
		l-0.899,1.25C227.096,49.963,224.545,51.263,221.245,51.263z M228.745,44.512l1.7-0.3V34.111c0-4.851-0.7-5.75-4.25-5.75
		c-3.551,0-4.25,0.899-4.25,5.75v4.75c0,4.851,0.6,5.851,4.05,5.851C226.695,44.712,227.596,44.712,228.745,44.512z M259.348,50.562
		h-15.001v-0.6l0.5-0.101c1.55-0.3,2.25-0.85,2.25-6.55V31.111c0-5.15-0.7-5.95-2.25-6.45l-1.5-0.5v-0.6l13.25-1.5v21.252
		c0,5.7,0.7,6.25,2.251,6.55l0.5,0.101V50.562z M245.746,15.51c0-2.9,1.4-4.25,5.851-4.25s5.851,1.35,5.851,4.25
		c0,2.9-1.4,4.25-5.851,4.25S245.746,18.411,245.746,15.51z M276.498,50.562h-16.001v-0.6l1.5-0.2c1.601-0.2,2.25-0.75,2.25-6.45
		V31.111c0-5.15-0.699-5.95-2.25-6.45l-1.5-0.5v-0.6l12.601-1.5l0.45,5.4h0.4l0.9-1.25c2.25-3.1,4.8-4.4,8.1-4.4
		c5.301,0,8.051,2.3,8.051,7.801v13.701c0,5.7,0.65,6.25,2.25,6.45l1.5,0.2v0.6h-16.001v-0.6l0.5-0.101
		c1.551-0.3,2.251-0.85,2.251-6.55V31.211c0-2.3-0.75-2.85-2.801-2.85c-0.7,0-1.55,0.05-2.75,0.2l-2.2,0.3v14.451
		c0,5.7,0.7,6.25,2.25,6.55l0.5,0.101V50.562z M313.65,58.562h-9.25c-9.051,0-10.251-1-10.251-3.399v-0.25
		c0-1.9,1.3-3.751,5.551-4.751v-0.75h-0.9c-1.65,0-2.551-0.8-2.551-3.149v-0.25c0-2.251,1.4-3.701,5.201-5.351l3.3-1.45v-0.9
		c-6.351-0.899-8.501-3-8.501-7.7v-0.25c0-5.75,3.601-8.551,13.751-8.551c2.45,0,4.15,0.2,6.4,0.7l0.15-0.35
		c1.55-4.3,3.5-5.85,8.4-5.85h1v6.55H317.9v0.9c4.051,1,5.851,3.25,5.851,6.601v0.25c0,5.75-3.6,8.551-13.751,8.551
		c-0.95,0-1.899-0.051-2.75-0.101l-1.3,1.75c-0.5,0.65-0.601,1-0.601,1.551v0.25h11.701c5.2,0,8.751,2.3,8.751,7.75v0.45
		C325.802,55.562,321.701,58.562,313.65,58.562z M313.65,55.062c3.101,0,3.95-0.85,3.95-2.2v-1.25c0-1.35-0.85-2.2-3.95-2.2h-11.7
		v3.95c0,1.351,0.35,1.7,2.45,1.7H313.65z M313.751,30.861v-0.75c0-3.8-0.5-4.55-3.751-4.55c-3.3,0-3.75,0.75-3.75,4.55v0.75
		c0,3.8,0.5,4.55,3.75,4.55C313.301,35.411,313.751,34.661,313.751,30.861z"/>
</g>
</svg>
