<?xml version="1.0" encoding="utf-8"?>
<!-- Generator: Adobe Illustrator 16.0.0, SVG Export Plug-In . SVG Version: 6.00 Build 0)  -->
<!DOCTYPE svg PUBLIC "-//W3C//DTD SVG 1.1//EN" "http://www.w3.org/Graphics/SVG/1.1/DTD/svg11.dtd">
<svg version="1.1" id="Layer_1" xmlns="http://www.w3.org/2000/svg" xmlns:xlink="http://www.w3.org/1999/xlink" x="0px" y="0px"
	 width="360px" height="70px" viewBox="0 0 360 70" enable-background="new 0 0 360 70" xml:space="preserve">
<g>
	<path d="M43.508,57.312H24.708v-0.5l2.3-0.25c1.7-0.199,2.35-1.149,2.35-8.15V15.561h-1.8c-3.35,0-6,1.55-9.901,8.8l-3,5.6h-0.65
		c0.15-1.6,1-15.201,1.05-16.901l11.951,0.5h19.352l12.4-2.05v15.851h0.35l0.95-1.15c2.65-3.2,4.9-4.4,7.951-4.4
		c4.85,0,7.55,2.351,7.55,7.65v12.601c0,6.65,0.7,7.501,2.5,7.801l1.25,0.2v0.5H63.91v-0.5l0.5-0.1c1.6-0.351,2.25-1.101,2.25-7.901
		v-11.5c0-2.4-0.85-3.101-2.95-3.101c-0.7,0-1.65,0.15-2.9,0.4l-2.05,0.399v13.801c0,6.801,0.7,7.601,2.25,7.901l0.5,0.1v0.5H46.109
		v-0.5l1.3-0.2c1.75-0.25,2.45-1.15,2.45-7.801V21.161c-2.3-4.5-5.05-5.6-8.55-5.6h-2.05v32.852c0,7.001,0.65,7.951,2.35,8.15
		l1.9,0.25V57.312z M47.159,56.513h57.404v0.8H47.159V56.513z M93.262,51.062c-8.75,0-12.251-4.2-12.251-13.451v-2.35
		c0-8.801,4.4-13.451,13.751-13.451c8.3,0,11.451,3.351,11.451,12.351v2.4H90.711v3.4c0,5.75,1.9,7.45,5.8,7.45
		c2.3,0,4.851-0.899,7.451-2.35l2.4-1.351l0.05,2.15l-1.9,1.4C101.112,49.763,97.262,51.062,93.262,51.062z M90.711,34.562h7.451
		v-3.15c0-5.6-0.85-6.7-3.75-6.7s-3.7,1.1-3.7,7.4V34.562z M127.164,57.312h-18.901v-0.5l1.9-0.25c1.7-0.199,2.35-1.149,2.35-8.15
		V22.411c0-6.95-0.65-7.85-2.35-8.101l-1.9-0.3v-0.5l9.101,0.05h10.15c10.901,0,15.051,5.3,15.051,12.601v1.95
		c0,7.25-4.15,12.601-15.001,12.601h-2.25v-2h1.2c3.8,0,5.15-2.7,5.15-9.701v-3.8c0-7-1.35-9.701-5.15-9.701h-4.1v32.902
		c0,7.001,0.65,7.951,2.35,8.15l2.4,0.25V57.312z M130.764,56.513h155.76v0.8h-155.76V56.513z M153.815,51.213
		c-4.9,0-7.601-2.351-7.601-7.65V32.111c0-6.15-0.35-7.4-1.75-7.851l-0.65-0.2v-0.5l11.301-1.55h0.05v20.451
		c0,2.4,0.8,3.101,2.9,3.101c0.75,0,1.65-0.101,2.95-0.4l2-0.45V32.111c0-6-0.7-7-2.45-7.601l-1.3-0.45v-0.5l12.65-1.55h0.051
		v18.852c0,6.05,0.75,7.1,2.45,7.65l1.3,0.45v0.5l-12.101,1.55l-0.4-5.4h-0.35l-0.95,1.2
		C159.266,49.963,156.815,51.213,153.815,51.213z M186.917,51.213c-5.65,0-9.2-4.101-9.2-13.251v-2.9
		c0-9.301,3.9-13.251,10.2-13.251c2.851,0,4.751,0.7,7.001,2.7l0.899,0.8h0.301v-3.7c0-5.951-0.75-7-2.45-7.601l-1.301-0.45v-0.5
		l12.301-1.55v29.001c0,6.2,0.75,7.45,2.45,8.001l1.301,0.45v0.5l-11.701,1.55h-0.05l-0.4-5.4h-0.3l-0.95,1.2
		C192.468,50.062,189.917,51.213,186.917,51.213z M194.468,45.162l1.65-0.45v-11c0-5.751-1-7.101-4.45-7.101c-3.4,0-4.4,1.7-4.4,7.5
		v4.7c0,5.45,1,6.751,4.25,6.751C192.268,45.562,193.218,45.512,194.468,45.162z M219.619,51.213c-5.601,0-9.2-4.101-9.2-13.251
		v-2.9c0-9.301,3.9-13.251,10.2-13.251c2.851,0,4.851,0.6,7.051,2.7l0.85,0.8h0.301v-3.7c0-5.951-0.7-7-2.45-7.601l-1.301-0.45v-0.5
		l12.301-1.55v29.001c0,6.2,0.75,7.45,2.5,8.001l1.25,0.45v0.5l-11.7,1.55l-0.4-5.4h-0.35l-0.95,1.2
		C225.17,50.062,222.619,51.213,219.619,51.213z M227.22,45.162l1.601-0.45v-11c0-5.751-1.001-7.101-4.4-7.101
		c-3.45,0-4.45,1.7-4.45,7.5v4.7c0,5.45,1,6.751,4.25,6.751C225.02,45.562,225.97,45.512,227.22,45.162z M242.221,50.062l0.5-0.1
		c1.6-0.301,2.25-1.101,2.25-7.901v-9.95c0-6-0.75-7-2.45-7.601l-1.3-0.45v-0.5l12.65-1.55h0.05v20.051
		c0,6.801,0.65,7.551,2.2,7.901l0.551,0.1v0.5h-14.451V50.062z M243.771,15.311c0-2.75,1.5-4.05,5.501-4.05c3.95,0,5.5,1.3,5.5,4.05
		c0,2.75-1.55,4.05-5.5,4.05C245.271,19.36,243.771,18.061,243.771,15.311z M257.722,50.062l1.3-0.2c1.75-0.25,2.45-1.15,2.45-7.801
		v-9.95c0-6-0.7-7-2.45-7.601l-1.3-0.45v-0.5l12.101-1.55h0.05l0.4,5.351h0.3l0.95-1.15c2.601-3.15,5.101-4.4,8.101-4.4
		c4.9,0,7.601,2.351,7.601,7.65v12.601c0,6.65,0.7,7.501,2.45,7.801l1.3,0.2v0.5h-15.451v-0.5l0.55-0.1
		c1.551-0.351,2.2-1.101,2.2-7.901v-11.5c0-2.4-0.8-3.101-2.899-3.101c-0.75,0-1.65,0.15-2.95,0.4l-2,0.399v13.801
		c0,6.801,0.649,7.601,2.25,7.901l0.5,0.1v0.5h-15.451V50.062z M308.325,58.562h-7.001c-9.751,0-11.301-1.149-11.301-3.45v-0.199
		c0-1.851,1.75-3.751,6.801-4.551v-0.75h-0.95c-2.25,0-3.4-1.1-3.4-3.45v-0.2c0-2.1,1.3-3.8,5-5.4l3.45-1.5v-0.649
		c-6.25-1-8.65-3.251-8.65-7.801v-0.25c0-5.65,3.9-8.551,13.451-8.551c2.601,0,4.45,0.15,6.75,0.7l0.101-0.3
		c1.35-3.55,3.65-5.201,8-5.201h0.95v5.701h-7.9v0.8c3.75,1,5.551,3.45,5.551,6.851v0.25c0,5.65-3.9,8.551-13.451,8.551
		c-1.15,0-2.25-0.051-3.25-0.15l-1.101,1.4c-0.649,0.8-0.85,1.35-0.85,1.85v0.2h12.001c5.55,0,8.851,2.601,8.851,7.601v0.4
		C321.376,55.413,316.125,58.562,308.325,58.562z M308.325,55.663c4.05,0,5.399-1.2,5.399-2.75v-0.551c0-1.55-1.35-2.75-5.399-2.75
		h-10.501l-0.05,3.9c0,1.45,0.75,2.15,3.55,2.15H308.325z M309.625,30.861v-0.75c0-4.3-0.7-5.4-3.9-5.4c-3.25,0-3.9,1.1-3.9,5.4
		v0.75c0,4.3,0.65,5.4,3.9,5.4S309.625,35.161,309.625,30.861z"/>
</g>
</svg>
