<?xml version="1.0" encoding="utf-8"?>
<!-- Generator: Adobe Illustrator 16.0.0, SVG Export Plug-In . SVG Version: 6.00 Build 0)  -->
<!DOCTYPE svg PUBLIC "-//W3C//DTD SVG 1.1//EN" "http://www.w3.org/Graphics/SVG/1.1/DTD/svg11.dtd">
<svg version="1.1" id="Layer_1" xmlns="http://www.w3.org/2000/svg" xmlns:xlink="http://www.w3.org/1999/xlink" x="0px" y="0px"
	 width="360px" height="70px" viewBox="0 0 360 70" enable-background="new 0 0 360 70" xml:space="preserve">
<g>
	<path d="M49.583,56.263c-3.75-0.25-13.701-0.25-17.451,0v-0.35l1.85-0.3c1.95-0.301,2.5-1.501,2.5-10.602V14.561h-0.95
		c-3.8,0-6.3,1.9-10.55,9.95l-2.601,4.95h-0.4c0.45-4.8,0.85-11.25,1-16.351l0.1-0.05c2.7,0.2,8.601,0.5,11.251,0.5h17.501
		c2.45,0,8.351-1.1,11.801-2.2l0.1,0.1v15.751h0.15l1.05-1c3.45-3.25,5.601-4.4,8.051-4.4c4.15,0,6.75,2.4,6.75,7.301v10.45
		c0,8.601,0.8,10.051,2.9,10.551l0.85,0.2v0.35c-3.55-0.25-10.851-0.25-14.401,0v-0.35l0.55-0.1c1.7-0.301,2.2-1.601,2.2-10.651
		v-9.7c0-2.601-0.95-3.7-3.15-3.7c-0.8,0-1.8,0.35-3.3,0.9l-1.65,0.6v11.9c0,9.051,0.55,10.351,2.2,10.651l0.55,0.1v0.35
		c-3.55-0.25-10.851-0.25-14.401,0v-0.35l0.9-0.2c2.05-0.45,2.85-1.95,2.85-10.551V20.46c-2.5-4.65-5.15-5.9-8.7-5.9h-1.8v30.451
		c0,9.101,0.6,10.251,2.55,10.602l1.7,0.3V56.263z M52.484,55.812h55.053v0.45H52.484V55.812z M97.187,51.062
		c-8.55,0-12.601-4.851-12.601-14.101v-1.051c0-8.95,4.35-14.101,13.101-14.101c7.25,0,11.101,3.2,11.101,12.351v1.15H93.736v3.101
		c0,8.351,1.85,10.3,6.15,10.3c2.75,0,5.55-1.25,7.701-3.35l1.6-1.45l0.15,0.8l-1.4,1.45
		C105.287,49.013,101.487,51.062,97.187,51.062z M93.736,34.312h7.351v-2.15c0-7.8-1.35-9.1-3.7-9.1s-3.65,1.3-3.65,11.1V34.312z
		 M128.989,56.213c-3.75-0.25-14.101-0.25-17.851,0v-0.35l1.75-0.301c1.45-0.25,1.8-1.5,1.8-10.601V24.661
		c0-9.051-0.6-10.351-2.5-10.701l-1.75-0.3v-0.3c2.05,0.15,6.95,0.2,8.75,0.2c2.1,0,6.851-0.25,8.75-0.25
		c10.051,0,15.151,4.851,15.151,13.001v1.05c0,8.15-5.05,13.001-15.001,13.001c-0.3,0-1.6,0-2.2-0.101v-1c0.55,0.1,1.5,0.1,1.75,0.1
		c3.85,0,5.55-3.1,5.55-11.2v-2.75c0-8.101-1.7-11.151-5.65-11.151c-0.5,0-2.55,0.05-4,0.1v30.602c0,9.101,1.3,10.351,3.2,10.601
		l2.25,0.301V56.213z M131.188,55.812h148.81v0.45h-148.81V55.812z M147.14,43.812v-9.651c0-7.75-0.4-9.85-1.8-10.15l-0.5-0.1v-0.35
		c2.7-0.25,6.65-0.85,10.101-1.7l0.05,0.1v21.102c0,2.6,1,3.7,3.2,3.7c0.8,0,1.8-0.301,3.3-0.9l1.65-0.65V34.161
		c0-7.7-0.8-9.4-2.9-10l-0.85-0.25v-0.35c3.2-0.25,8.101-0.85,11.551-1.7l0.05,0.1v16.751c0,7.75,0.85,9.45,2.9,10.051l0.85,0.25
		v0.35c-3.15,0.25-7.7,0.851-11.15,1.7l-0.05-0.1l-0.301-5.301h-0.199l-1.051,1.05c-3.35,3.351-5.65,4.4-8.1,4.4
		C149.74,51.112,147.14,48.712,147.14,43.812z M176.241,37.162v-1.4c0-9.651,4.601-13.951,12.101-13.951
		c2.001,0,3.501,0.6,5.301,1.75l0.8,0.5h0.15v-1.4c0-7.05-0.8-8.4-2.9-9l-0.85-0.25v-0.35c3.2-0.25,8-0.85,11.45-1.7l0.05,0.1
		v27.151c0,7.801,0.801,9.501,2.9,10.151l0.851,0.25v0.35c-3.2,0.25-7.601,0.851-11.051,1.7l-0.051-0.1l-0.3-5.301h-0.2l-1.05,1.05
		c-3.35,3.351-5.65,4.4-8.101,4.4C179.892,51.112,176.241,46.312,176.241,37.162z M193.093,45.862l1.5-0.65v-11.25
		c0-7.951-1.65-10.251-4.801-10.251s-4.8,3.4-4.8,11.4v2.65c0,6.95,1.8,9.001,4.65,9.001
		C190.593,46.763,191.643,46.513,193.093,45.862z M207.543,37.162v-1.4c0-9.651,4.65-13.951,12.151-13.951c2,0,3.5,0.55,5.3,1.75
		l0.75,0.5h0.2v-1.4c0-7.05-0.8-8.4-2.9-9l-0.85-0.25v-0.35c3.2-0.25,7.95-0.85,11.4-1.7l0.101,0.1v27.151
		c0,7.801,0.8,9.551,2.899,10.151l0.851,0.25v0.35c-3.2,0.25-7.601,0.851-11.051,1.7l-0.05-0.1l-0.3-5.301h-0.2l-1.051,1.05
		c-3.35,3.351-5.649,4.4-8.1,4.4C211.243,51.112,207.543,46.312,207.543,37.162z M224.444,45.862l1.5-0.65v-11.25
		c0-7.951-1.7-10.251-4.8-10.251c-3.15,0-4.851,3.4-4.851,11.4v2.65c0,6.95,1.85,9.001,4.7,9.001
		C221.944,46.763,222.994,46.513,224.444,45.862z M238.396,50.312l0.55-0.1c1.65-0.301,2.2-1.601,2.2-10.651v-5.4
		c0-7.7-0.8-9.4-2.9-10l-0.85-0.25v-0.35c3.2-0.25,8.101-0.85,11.551-1.7l0.1,0.1v17.601c0,9.051,0.5,10.351,2.2,10.651l0.55,0.1
		v0.35c-3.3-0.25-10.15-0.25-13.4,0V50.312z M240.195,15.41c0-2.4,1.65-4.15,4.851-4.15c3.15,0,4.85,1.75,4.85,4.15
		c0,2.4-1.699,4.15-4.85,4.15C241.846,19.561,240.195,17.811,240.195,15.41z M252.746,50.312l0.85-0.2
		c2.101-0.5,2.9-1.95,2.9-10.551v-5.4c0-7.7-0.8-9.4-2.9-10l-0.85-0.25v-0.35c3.2-0.25,7.7-0.85,11.15-1.7l0.101,0.1l0.3,5.25h0.15
		l1.05-1c3.4-3.25,5.65-4.4,8.101-4.4c4.15,0,6.75,2.4,6.75,7.301v10.45c0,8.601,0.8,10.051,2.9,10.551l0.85,0.2v0.35
		c-3.5-0.25-10.851-0.25-14.351,0v-0.35l0.55-0.1c1.65-0.301,2.2-1.601,2.2-10.651v-9.7c0-2.601-1-3.7-3.2-3.7
		c-0.8,0-1.8,0.35-3.3,0.9l-1.65,0.6v11.9c0,9.051,0.55,10.301,2.25,10.651l0.5,0.1v0.35c-3.5-0.25-10.851-0.25-14.351,0V50.312z
		 M298.449,58.562h-2.4c-11.351,0-13.551-1.5-13.551-3.5v-0.149c0-1.95,2.9-4.15,8.351-4.15h0.35c-0.6,1.149-1,2.4-1,3.5
		c0,1.7,1.601,3.05,5.851,3.05h2.4c6,0,8.3-1.949,8.3-3.7v-0.399c0-1.2-0.85-2.2-3.3-2.351l-12.751-0.899
		c-3.35-0.301-5.05-1.601-5.05-3.95v-0.15c0-1.8,1.05-3.5,4.55-5.45l2.851-1.601v-0.25c-5.351-1.05-8.051-3.65-8.051-7.95v-0.25
		c0-5.45,4.5-8.551,12.951-8.551c2.6,0,4.75,0.25,6.5,0.8l0.15-0.25c1.95-3.3,4.25-4.9,8.101-4.9h0.85v5h-5.601
		c-0.8,0-2.149,0.15-2.8,0.3l-0.2,0.05v0.25c3.9,1.2,6,3.75,6,7.3v0.25c0,5.45-4.5,8.551-13,8.551c-1.551,0-3.101-0.15-4.2-0.301
		l-0.7,0.801c-1,1-1.301,1.55-1.301,1.95c0,0.25,0.2,0.55,0.7,0.55l11.851,0.55c6.301,0.351,9.201,2.7,9.201,6.7v0.301
		C313.5,55.163,305.949,58.562,298.449,58.562z M302.199,30.861v-0.75c0-4.95-1.05-7.05-4.25-7.05c-3.15,0-4.2,2.1-4.2,7.05v0.75
		c0,4.95,1.05,7.051,4.2,7.051C301.149,37.912,302.199,35.812,302.199,30.861z"/>
</g>
</svg>
