<svg xmlns="http://www.w3.org/2000/svg" width="20" height="16.25" viewBox="2.305 1.874 20 16.253" aria-labelledby="twitter-title" role="img">
	<title id="twitter-title">Tweet this</title>
  	<path d="M22.3 3.83c-.58.84-1.27 1.55-2.06 2.12.02.13.02.3.02.53 0 1.1-.16 2.2-.48 3.3-.32 1.1-.8 2.14-1.46 3.16-.65 1-1.43 1.9-2.33 2.66-.97.77-2.07 1.37-3.3 1.85-1.3.47-2.67.7-4.1.68-2.3 0-4.4-.62-6.3-1.85.3.04.6.05 1 .05 1.9 0 3.6-.58 5.1-1.76-.9 0-1.7-.28-2.4-.8-.7-.54-1.2-1.2-1.48-2.04.27.05.52.07.76.07.37 0 .73-.03 1.1-.13-.95-.2-1.75-.67-2.38-1.4-.64-.76-.96-1.63-.94-2.63V7.6c.55.3 1.2.48 1.82.5-.56-.37-1.02-.84-1.35-1.45-.34-.58-.5-1.24-.5-1.95 0-.74.2-1.43.57-2.08C4.7 3.9 5.94 4.9 7.4 5.65c1.46.76 3.03 1.2 4.7 1.3-.05-.33-.08-.65-.08-.95 0-1.14.4-2.1 1.2-2.92.8-.8 1.78-1.2 2.93-1.2 1.17 0 2.17.42 3 1.3.92-.18 1.8-.52 2.58-1-.3.96-.9 1.7-1.8 2.25.8-.1 1.58-.3 2.38-.63v.03z"/>
</svg>
