<svg xmlns="http://www.w3.org/2000/svg" class="logo-svg" viewBox="0 15 700 165" version="1.1">
<path class="include" d=" M 82.10 28.02 C 90.54 27.95 98.97 27.96 107.41 28.01 C 107.47 46.54 107.44 65.07 107.42 83.60 C 116.89 83.74 126.35 83.76 135.82 83.59 C 135.78 65.07 135.77 46.54 135.82 28.02 C 144.28 27.95 152.74 27.95 161.20 28.02 C 161.24 73.67 161.25 119.33 161.20 164.98 C 152.74 165.02 144.28 165.02 135.82 164.98 C 135.74 146.39 135.83 127.80 135.78 109.21 C 126.34 109.20 116.89 109.14 107.45 109.25 C 107.39 127.83 107.51 146.41 107.39 164.99 C 98.96 165.01 90.53 165.02 82.10 164.98 C 82.14 119.33 82.13 73.67 82.10 28.02 Z"></path>
<path class="include" d=" M 177.11 28.01 C 185.54 27.96 193.97 27.96 202.41 28.01 C 202.45 73.67 202.48 119.33 202.39 164.99 C 193.96 165.01 185.53 165.01 177.10 164.98 C 177.14 119.33 177.13 73.67 177.11 28.01 Z"></path>
<path class="include" d=" M 218.10 28.01 C 235.40 27.91 252.70 28.05 270.00 27.94 C 272.58 27.96 275.20 27.79 277.76 28.25 C 280.72 29.81 282.95 32.42 285.49 34.54 C 288.27 37.15 291.49 39.32 293.83 42.37 C 294.33 44.18 294.23 46.09 294.28 47.95 C 294.14 65.98 294.32 84.02 294.20 102.04 C 294.40 104.80 291.67 106.27 290.00 107.99 C 285.90 111.34 282.34 115.39 277.84 118.20 C 266.43 118.91 254.94 118.17 243.50 118.53 C 243.33 134.01 243.54 149.50 243.39 164.99 C 234.96 165.01 226.53 165.02 218.10 164.98 C 218.14 119.33 218.13 73.67 218.10 28.01 Z"></path>
<path class="include" d=" M 357.10 28.02 C 365.54 27.96 373.97 27.96 382.41 28.01 C 382.47 46.54 382.44 65.07 382.42 83.60 C 391.89 83.74 401.35 83.76 410.82 83.59 C 410.78 65.07 410.77 46.54 410.82 28.02 C 419.28 27.95 427.74 27.95 436.20 28.02 C 436.25 73.67 436.25 119.33 436.20 164.98 C 427.74 165.02 419.28 165.02 410.83 164.98 C 410.74 146.39 410.83 127.80 410.78 109.21 C 401.34 109.20 391.89 109.14 382.45 109.25 C 382.39 127.83 382.51 146.41 382.39 164.99 C 373.96 165.01 365.53 165.01 357.10 164.98 C 357.13 119.33 357.13 73.67 357.10 28.02 Z"></path>
<path class="include" d=" M 466.55 28.59 C 468.17 27.72 470.14 28.07 471.93 27.93 C 485.30 28.07 498.67 27.89 512.04 28.01 C 515.01 27.78 516.91 30.35 518.98 32.04 C 522.62 35.52 526.79 38.45 530.10 42.26 C 530.78 45.80 530.38 49.43 530.46 53.01 C 530.43 82.00 530.43 111.00 530.46 140.00 C 530.37 143.57 530.79 147.20 530.08 150.72 C 525.87 155.29 520.82 159.02 516.26 163.24 C 514.13 165.52 510.84 164.96 508.04 165.05 C 495.33 164.92 482.63 165.06 469.92 165.01 C 466.41 165.37 464.13 162.30 461.70 160.31 C 458.35 156.97 454.29 154.34 451.36 150.61 C 450.84 147.10 451.16 143.53 451.11 139.99 C 451.14 108.32 451.12 76.64 451.11 44.96 C 450.60 41.63 453.79 39.81 455.84 37.81 C 459.50 34.85 462.67 31.28 466.55 28.59 Z"></path>
<path class="include" d=" M 546.10 28.01 C 564.43 27.91 582.75 28.05 601.07 27.93 C 603.07 28.09 605.38 27.63 607.06 29.00 C 610.80 31.86 614.09 35.26 617.74 38.24 C 619.69 40.09 622.56 41.84 622.21 44.95 C 622.31 62.98 622.14 81.02 622.28 99.06 C 622.17 101.31 622.67 104.06 620.57 105.60 C 616.42 109.45 612.18 113.22 607.86 116.89 C 606.07 118.75 603.39 118.46 601.04 118.51 C 591.19 118.46 581.35 118.40 571.50 118.53 C 571.33 134.01 571.54 149.50 571.39 164.99 C 562.96 165.01 554.53 165.02 546.10 164.98 C 546.14 119.33 546.13 73.67 546.10 28.01 Z"></path>
<path class="exclude" d=" M 476.50 53.52 C 485.96 53.39 495.43 53.51 504.89 53.44 C 505.35 82.06 505.12 110.70 505.01 139.33 C 495.48 139.40 485.95 139.53 476.42 139.25 C 476.50 110.67 476.34 82.09 476.50 53.52 Z"></path>
<path class="exclude" d=" M 243.41 53.64 C 251.87 53.32 260.34 53.42 268.80 53.57 C 268.79 66.70 268.79 79.83 268.79 92.96 C 260.33 93.01 251.87 93.05 243.42 92.93 C 243.45 79.83 243.45 66.74 243.41 53.64 Z"></path>
<path class="exclude" d=" M 571.42 53.64 C 579.87 53.32 588.34 53.42 596.80 53.57 C 596.79 66.70 596.79 79.83 596.79 92.96 C 588.33 93.01 579.87 93.05 571.42 92.93 C 571.45 79.83 571.45 66.74 571.42 53.64 Z"></path>
</svg>