<svg xmlns="http://www.w3.org/2000/svg" class="logo-svg" viewBox="0 30 700 122" version="1.1">
<path class="include" d=" M 7.67 53.33 C 13.02 53.28 18.38 53.30 23.74 53.32 C 23.76 78.11 23.73 102.91 23.76 127.70 C 27.35 127.70 30.94 127.68 34.53 127.72 C 34.53 129.09 34.52 130.45 34.52 131.82 C 25.57 131.84 16.62 131.84 7.66 131.82 C 7.67 130.46 7.68 129.11 7.69 127.75 C 10.88 127.75 16.50 128.45 16.54 123.80 C 16.70 103.84 16.54 83.88 16.62 63.93 C 16.55 62.13 16.84 59.92 15.21 58.68 C 13.14 56.90 10.16 57.84 7.68 57.54 C 7.67 56.14 7.67 54.74 7.67 53.33 Z"></path>
<path class="include" d=" M 27.05 53.34 C 39.87 53.28 52.69 53.30 65.51 53.32 C 65.51 59.74 65.54 66.16 65.49 72.59 C 63.86 72.59 62.23 72.59 60.60 72.59 C 60.28 67.66 59.95 62.73 59.49 57.80 C 48.69 57.77 37.88 57.83 27.07 57.77 C 27.07 56.29 27.06 54.81 27.05 53.34 Z"></path>
<path class="include" d=" M 100.59 53.34 C 105.80 53.35 111.03 53.11 116.23 53.54 C 116.96 77.33 116.16 101.17 116.63 124.97 C 117.53 128.88 122.54 127.41 125.45 127.75 C 125.45 129.10 125.44 130.46 125.44 131.82 C 117.34 131.84 109.24 131.86 101.14 131.81 C 101.15 130.45 101.15 129.10 101.16 127.74 C 104.23 127.61 110.13 128.73 109.87 123.97 C 109.85 102.42 110.05 80.86 109.76 59.31 C 107.31 56.88 103.76 57.71 100.66 57.57 C 100.63 56.16 100.61 54.75 100.59 53.34 Z"></path>
<path class="include" d=" M 252.86 53.36 C 258.20 53.27 263.54 53.31 268.88 53.32 C 268.88 79.49 268.88 105.66 268.88 131.83 C 263.54 131.83 258.21 131.87 252.87 131.79 C 252.87 130.45 252.88 129.10 252.90 127.76 C 256.08 127.73 261.59 128.47 261.78 123.87 C 261.95 103.90 261.77 83.91 261.86 63.93 C 261.78 62.10 262.07 59.76 260.35 58.54 C 258.22 56.98 255.37 57.80 252.92 57.52 C 252.90 56.13 252.88 54.74 252.86 53.36 Z"></path>
<path class="include" d=" M 272.26 53.34 C 284.61 53.29 297.96 52.41 308.98 59.03 C 317.95 64.31 322.43 74.69 323.43 84.69 C 324.28 94.95 323.98 105.84 319.17 115.17 C 315.83 121.76 309.60 126.53 302.69 128.89 C 292.95 132.47 282.43 131.84 272.24 131.79 C 272.25 130.31 272.26 128.84 272.27 127.36 C 283.52 127.14 296.04 128.66 305.76 121.75 C 314.70 115.26 316.57 103.29 316.55 92.99 C 316.66 82.60 315.02 70.55 306.19 63.79 C 296.45 56.57 283.65 57.98 272.24 57.75 C 272.25 56.28 272.25 54.81 272.26 53.34 Z"></path>
<path class="include" d=" M 418.72 53.34 C 423.93 53.36 429.16 53.10 434.37 53.54 C 435.09 77.33 434.33 101.17 434.75 124.97 C 435.63 128.86 440.67 127.42 443.60 127.76 C 443.60 129.11 443.60 130.46 443.60 131.81 C 435.46 131.84 427.32 131.87 419.18 131.79 C 419.19 130.45 419.20 129.10 419.21 127.75 C 421.56 127.64 423.97 127.95 426.27 127.30 C 427.79 126.47 428.22 124.67 428.14 123.06 C 428.15 103.02 428.13 82.97 428.15 62.93 C 428.26 60.95 427.82 58.70 425.81 57.82 C 423.47 57.44 421.08 57.62 418.73 57.56 C 418.72 56.15 418.71 54.74 418.72 53.34 Z"></path>
<path class="include" d=" M 81.54 56.48 C 84.67 55.40 88.06 58.57 87.09 61.78 C 86.53 65.30 81.34 66.06 79.34 63.46 C 77.25 61.27 78.57 57.08 81.54 56.48 Z"></path>
<path class="include" d=" M 340.60 56.58 C 343.78 55.22 347.59 58.28 346.63 61.70 C 345.98 65.63 339.63 66.22 338.25 62.53 C 337.17 60.35 338.34 57.45 340.60 56.58 Z"></path>
<path class="include" d=" M 71.09 73.29 C 76.23 73.31 81.39 73.11 86.52 73.46 C 87.36 90.57 86.46 107.74 86.97 124.86 C 87.83 128.93 92.83 127.40 95.78 127.75 C 95.79 129.10 95.81 130.44 95.82 131.79 C 87.72 131.87 79.61 131.83 71.51 131.82 C 71.50 130.47 71.50 129.11 71.50 127.76 C 73.79 127.64 76.14 127.93 78.38 127.36 C 80.43 126.45 80.30 123.95 80.29 122.08 C 80.14 108.11 80.48 94.13 80.12 80.17 C 78.82 76.42 74.07 78.01 71.08 77.64 C 71.08 76.19 71.09 74.74 71.09 73.29 Z"></path>
<path class="include" d=" M 130.27 73.31 C 135.16 73.28 140.05 73.16 144.93 73.42 C 145.41 75.23 145.72 77.10 145.68 78.99 C 145.65 95.22 145.66 111.46 145.67 127.70 C 149.04 127.70 152.40 127.68 155.77 127.72 C 155.78 129.08 155.79 130.43 155.80 131.79 C 147.45 131.87 139.09 131.85 130.74 131.80 C 130.75 130.46 130.76 129.12 130.77 127.78 C 133.28 127.43 136.52 128.49 138.42 126.33 C 139.15 124.69 139.10 122.84 139.14 121.08 C 139.11 108.69 139.12 96.30 139.14 83.91 C 139.07 82.18 139.14 80.29 138.18 78.77 C 135.97 76.96 132.88 77.91 130.27 77.62 C 130.27 76.18 130.27 74.75 130.27 73.31 Z"></path>
<path class="include" d=" M 149.99 79.89 C 155.16 75.91 161.32 72.67 168.00 72.71 C 172.05 72.69 176.63 73.32 179.49 76.50 C 182.29 79.57 182.90 83.92 182.89 87.93 C 182.90 101.18 182.88 114.43 182.90 127.68 C 185.88 127.70 188.86 127.69 191.84 127.71 C 191.84 129.08 191.85 130.44 191.86 131.81 C 183.68 131.85 175.50 131.86 167.32 131.81 C 167.32 130.45 167.33 129.09 167.33 127.73 C 170.31 127.69 173.29 127.70 176.28 127.69 C 176.28 114.78 176.31 101.86 176.27 88.94 C 176.33 85.08 175.30 80.38 171.28 78.82 C 163.23 76.55 155.27 80.44 148.75 84.88 C 148.99 83.22 148.20 80.93 149.99 79.89 Z"></path>
<path class="include" d=" M 186.25 80.55 C 191.23 76.91 196.68 73.34 203.01 72.84 C 207.67 72.46 213.12 72.83 216.53 76.45 C 219.26 79.20 220.12 83.20 220.28 86.95 C 220.45 99.55 220.15 112.16 220.41 124.76 C 220.73 128.51 225.24 127.57 227.85 127.78 C 227.85 129.12 227.86 130.46 227.87 131.81 C 219.72 131.85 211.58 131.85 203.43 131.81 C 203.43 130.46 203.42 129.11 203.42 127.77 C 206.80 127.66 210.19 127.70 213.58 127.70 C 213.49 114.21 213.72 100.71 213.46 87.22 C 213.57 82.92 210.60 78.19 205.89 78.32 C 198.58 77.30 192.07 81.30 186.14 84.97 C 186.17 83.50 186.20 82.02 186.25 80.55 Z"></path>
<path class="include" d=" M 330.42 73.30 C 335.59 73.29 340.77 73.13 345.94 73.44 C 346.64 76.92 346.41 80.48 346.43 84.01 C 346.41 96.70 346.45 109.39 346.41 122.09 C 346.44 123.44 346.37 124.85 346.86 126.14 C 348.93 128.62 352.49 127.41 355.27 127.74 C 355.28 129.10 355.29 130.46 355.30 131.82 C 347.24 131.84 339.18 131.86 331.12 131.81 C 331.12 130.45 331.12 129.09 331.12 127.73 C 333.94 127.46 339.10 128.84 339.60 124.77 C 339.85 111.17 339.60 97.55 339.72 83.95 C 339.68 81.81 340.02 79.10 337.78 77.90 C 335.34 77.52 332.87 77.70 330.41 77.63 C 330.41 76.19 330.41 74.74 330.42 73.30 Z"></path>
<path class="include" d=" M 365.15 77.46 C 370.92 74.63 377.19 72.97 383.62 72.68 C 383.62 74.25 383.62 75.83 383.62 77.41 C 379.06 77.85 374.41 78.84 370.63 81.57 C 368.96 82.90 366.94 83.46 364.83 83.38 C 364.87 81.41 364.98 79.43 365.15 77.46 Z"></path>
<path class="include" d=" M 386.84 72.68 C 392.07 72.86 397.82 73.45 401.93 77.06 C 405.56 80.24 406.35 85.39 406.39 89.97 C 406.43 100.65 406.37 111.34 406.41 122.02 C 406.52 123.73 406.39 125.89 408.01 126.97 C 409.76 128.09 411.96 127.63 413.93 127.78 C 413.86 129.02 413.80 130.27 413.74 131.51 C 410.22 132.32 406.28 132.84 403.02 130.89 C 400.54 129.63 399.62 126.69 399.73 124.08 C 399.68 112.38 399.78 100.69 399.69 88.99 C 399.73 85.69 398.62 82.15 395.92 80.09 C 393.34 78.07 389.97 77.81 386.86 77.32 C 386.84 75.78 386.83 74.23 386.84 72.68 Z"></path>
<path class="include" d=" M 462.60 76.55 C 466.66 74.03 471.43 73.13 476.13 72.69 C 476.14 74.20 476.15 75.71 476.16 77.22 C 468.90 77.87 461.88 81.94 458.76 88.70 C 454.54 97.94 454.62 109.42 459.70 118.31 C 463.05 124.23 469.60 127.32 476.16 128.06 C 476.15 129.49 476.14 130.91 476.13 132.34 C 468.35 131.84 460.47 128.68 455.53 122.47 C 450.37 116.24 448.62 107.84 449.20 99.91 C 449.54 90.61 454.35 81.22 462.60 76.55 Z"></path>
<path class="include" d=" M 479.32 72.67 C 486.06 73.13 492.88 75.39 497.72 80.29 C 505.50 87.74 507.70 99.51 505.66 109.79 C 504.25 117.78 499.23 125.19 491.95 128.92 C 488.08 131.05 483.68 131.90 479.33 132.37 C 479.30 130.92 479.29 129.48 479.28 128.04 C 484.96 127.24 490.82 125.13 494.33 120.34 C 500.43 112.11 500.79 100.69 497.73 91.22 C 495.16 83.28 487.50 77.88 479.30 77.26 C 479.29 75.73 479.30 74.20 479.32 72.67 Z"></path>
<path class="include" d=" M 516.50 83.41 C 519.48 76.49 527.06 73.02 534.24 72.63 C 534.26 74.05 534.27 75.47 534.29 76.89 C 531.00 77.67 527.38 78.35 525.03 81.02 C 520.64 85.91 520.14 93.85 523.62 99.37 C 525.91 103.04 530.34 104.12 534.29 104.94 C 534.27 106.29 534.26 107.64 534.25 108.99 C 528.70 108.92 522.98 106.98 519.23 102.75 C 514.35 97.70 514.03 89.65 516.50 83.41 Z"></path>
<path class="include" d=" M 537.52 72.71 C 545.57 73.79 553.72 73.03 561.81 73.30 C 561.81 74.75 561.81 76.20 561.82 77.65 C 558.49 77.83 554.87 77.01 551.89 78.89 C 555.99 83.84 558.06 90.65 555.77 96.88 C 553.46 104.64 545.27 108.97 537.56 109.05 C 537.52 107.67 537.49 106.30 537.48 104.93 C 541.23 104.12 545.42 103.13 547.73 99.76 C 551.74 93.95 551.04 85.05 545.75 80.23 C 543.50 78.15 540.39 77.62 537.52 76.94 C 537.51 75.53 537.51 74.12 537.52 72.71 Z"></path>
<path class="include" d=" M 566.75 73.30 C 571.79 73.24 576.85 73.28 581.90 73.27 C 581.96 87.54 581.83 101.80 581.96 116.06 C 582.02 120.08 583.15 125.02 587.44 126.49 C 596.21 129.09 605.04 124.99 612.30 120.32 C 612.33 121.77 612.21 123.21 611.96 124.63 C 605.65 129.29 598.00 132.94 589.96 132.46 C 585.70 132.43 581.10 131.12 578.35 127.66 C 575.89 124.74 575.29 120.77 575.30 117.07 C 575.29 105.70 575.29 94.32 575.31 82.94 C 575.28 81.46 575.36 79.86 574.36 78.64 C 572.15 77.06 569.26 77.88 566.74 77.61 C 566.73 76.17 566.74 74.74 566.75 73.30 Z"></path>
<path class="include" d=" M 606.15 73.30 C 611.38 73.25 616.62 73.27 621.85 73.28 C 621.87 89.55 621.86 105.82 621.85 122.09 C 621.92 123.91 621.87 126.28 623.76 127.26 C 626.03 127.99 628.47 127.62 630.82 127.75 C 630.82 129.10 630.83 130.45 630.85 131.80 C 625.93 131.83 621.00 131.94 616.09 131.69 C 615.64 129.85 615.40 127.96 615.44 126.06 C 615.46 109.94 615.45 93.81 615.45 77.68 C 612.35 77.67 609.25 77.69 606.16 77.65 C 606.15 76.20 606.15 74.75 606.15 73.30 Z"></path>
<path class="include" d=" M 637.71 91.82 C 640.53 81.12 650.67 72.90 661.82 72.89 C 661.84 74.23 661.87 75.56 661.90 76.90 C 656.47 77.83 650.93 79.99 647.67 84.68 C 642.72 91.26 642.82 99.94 643.40 107.76 C 644.06 113.96 646.36 120.62 651.80 124.20 C 655.33 126.68 659.68 127.39 663.86 127.98 C 663.85 129.43 663.84 130.89 663.84 132.35 C 656.28 131.94 648.24 129.82 643.08 123.91 C 635.64 115.19 634.86 102.51 637.71 91.82 Z"></path>
<path class="include" d=" M 665.19 72.66 C 671.41 73.14 677.93 74.99 682.18 79.86 C 687.86 86.00 688.84 94.79 688.69 102.79 C 674.54 102.88 660.40 102.86 646.25 102.80 C 646.26 101.32 646.27 99.84 646.29 98.35 C 658.18 98.32 670.07 98.37 681.96 98.33 C 681.89 92.18 680.62 85.42 675.85 81.12 C 672.92 78.40 668.90 77.63 665.11 76.93 C 665.13 75.51 665.15 74.08 665.19 72.66 Z"></path>
<path class="include" d=" M 45.31 80.53 C 46.84 80.50 48.36 80.48 49.88 80.46 C 49.92 89.01 49.93 97.56 49.88 106.12 C 48.37 106.12 46.86 106.12 45.35 106.12 C 44.96 102.60 44.68 99.06 44.40 95.53 C 38.63 95.52 32.85 95.53 27.08 95.52 C 27.08 94.05 27.07 92.58 27.07 91.11 C 32.84 90.76 38.63 90.98 44.41 90.90 C 44.67 87.44 44.97 83.98 45.31 80.53 Z"></path>
<path class="include" d=" M 372.19 100.18 C 380.03 97.60 388.54 97.87 396.56 99.43 C 396.54 100.47 396.50 102.55 396.47 103.58 C 389.01 102.67 380.96 101.63 373.87 104.82 C 365.10 108.39 365.33 123.70 374.45 126.68 C 381.97 129.26 390.51 127.27 396.50 122.14 C 396.50 123.74 396.50 125.33 396.49 126.93 C 390.48 131.60 382.55 133.42 375.10 131.90 C 370.03 130.94 364.76 128.20 362.66 123.22 C 360.67 118.37 360.52 112.57 362.90 107.82 C 364.81 104.16 368.28 101.44 372.19 100.18 Z"></path>
<path class="include" d=" M 516.47 118.53 C 514.85 114.61 516.23 110.21 518.70 106.97 C 519.77 107.62 520.86 108.28 521.95 108.93 C 521.80 111.15 521.05 113.54 522.07 115.65 C 523.29 117.59 525.78 118.12 527.92 118.19 C 534.54 118.38 541.17 118.00 547.79 118.38 C 552.95 118.73 558.75 121.17 560.59 126.41 C 562.53 132.31 561.42 139.44 556.96 143.94 C 551.51 149.31 543.48 150.55 536.14 150.72 C 536.15 149.24 536.16 147.75 536.18 146.27 C 540.83 145.74 545.78 145.45 549.81 142.77 C 553.87 140.20 556.13 134.92 554.76 130.24 C 554.16 126.83 550.77 124.69 547.51 124.47 C 540.38 123.76 533.19 124.55 526.06 124.04 C 522.33 123.69 518.10 122.21 516.47 118.53 Z"></path>
<path class="include" d=" M 681.60 122.66 C 683.03 120.92 685.23 121.10 687.28 121.07 C 687.28 122.67 687.29 124.26 687.31 125.86 C 681.34 129.82 674.39 132.25 667.19 132.37 C 667.16 130.93 667.15 129.48 667.15 128.04 C 672.34 127.57 677.68 126.32 681.60 122.66 Z"></path>
<path class="include" d=" M 510.96 131.83 C 511.98 128.71 514.51 126.53 516.96 124.52 C 518.36 125.05 519.77 125.58 521.19 126.10 C 517.45 129.64 514.96 135.39 517.71 140.28 C 520.79 145.49 527.55 145.71 532.90 146.31 C 532.86 147.79 532.83 149.28 532.81 150.76 C 526.22 150.50 519.01 149.66 513.90 145.05 C 510.19 141.83 509.59 136.31 510.96 131.83 Z"></path>
</svg>