<svg xmlns="http://www.w3.org/2000/svg" class="logo-svg" viewBox="0 50 700 100" version="1.1">
<path class="include" d=" M 37.41 73.65 C 50.90 70.31 67.05 73.99 75.73 85.37 C 78.44 88.71 74.69 92.26 71.84 93.82 C 69.58 94.64 68.27 92.44 66.93 91.09 C 61.71 85.25 53.78 81.78 45.93 82.28 C 37.21 82.46 28.39 88.22 26.12 96.89 C 24.02 104.42 27.42 112.95 33.98 117.13 C 41.51 122.33 51.88 122.24 59.75 117.79 C 63.74 115.92 66.43 112.36 69.58 109.44 C 72.33 108.43 74.37 111.25 75.95 113.06 C 77.83 115.45 75.82 118.31 74.04 120.04 C 63.57 130.71 46.47 133.52 32.76 128.07 C 26.17 125.28 20.33 120.29 17.28 113.75 C 13.03 104.83 13.80 93.62 19.57 85.55 C 23.88 79.65 30.30 75.35 37.41 73.65 Z" style="fill: rgb(0, 0, 0);"></path>
<path class="include" d=" M 111.47 73.60 C 120.23 71.55 129.75 72.21 137.94 76.07 C 144.15 79.19 149.44 84.33 152.23 90.75 C 155.45 98.66 155.04 108.11 150.67 115.50 C 146.05 123.55 137.43 128.69 128.41 130.21 C 120.21 131.35 111.51 130.78 104.03 126.95 C 98.38 123.97 93.40 119.39 90.70 113.53 C 87.26 106.15 87.26 97.23 90.63 89.83 C 94.53 81.54 102.65 75.66 111.47 73.60 Z" style="fill: rgb(0, 0, 0);"></path>
<path class="include" d=" M 259.57 74.40 C 260.67 73.17 262.46 73.59 263.92 73.47 C 280.11 73.60 296.32 73.33 312.51 73.60 C 315.98 74.81 314.09 79.59 314.34 82.38 C 312.59 82.81 310.80 83.14 309.00 83.10 C 295.79 83.06 282.58 83.10 269.37 83.07 C 269.37 87.54 269.38 92.00 269.35 96.46 C 279.76 96.52 290.18 96.31 300.58 96.55 C 303.10 96.99 302.49 100.10 302.55 101.98 C 302.80 103.69 302.07 106.07 299.92 105.78 C 289.75 105.92 279.56 105.78 269.38 105.83 C 269.36 110.62 269.38 115.42 269.36 120.21 C 283.57 120.23 297.78 120.15 311.99 120.24 C 314.03 120.04 314.72 122.29 314.56 123.93 C 314.61 126.05 315.02 129.74 311.95 129.77 C 295.63 129.93 279.30 129.78 262.98 129.85 C 261.60 129.88 259.50 129.72 259.28 127.97 C 258.48 124.05 259.08 120.02 259.07 116.06 C 258.73 104.34 259.43 92.61 258.95 80.89 C 258.89 78.72 258.76 76.46 259.57 74.40 Z" style="fill: rgb(0, 0, 0);"></path>
<path class="include" d=" M 331.24 76.07 C 331.02 74.45 332.64 73.38 334.11 73.51 C 346.76 73.45 359.42 73.51 372.08 73.49 C 378.10 73.52 384.96 75.16 388.44 80.54 C 392.58 86.80 390.60 95.72 384.78 100.23 C 391.97 104.37 394.45 114.27 390.37 121.41 C 387.31 127.31 380.32 129.62 374.07 129.80 C 361.37 129.90 348.66 129.78 335.96 129.86 C 334.40 129.83 332.44 130.04 331.48 128.50 C 331.01 126.70 331.17 124.82 331.14 122.98 C 331.25 107.34 331.03 91.70 331.24 76.07 Z" style="fill: rgb(0, 0, 0);"></path>
<path class="include" d=" M 476.91 94.82 C 479.32 84.13 488.70 76.04 499.15 73.59 C 512.65 70.32 528.65 74.11 537.34 85.46 C 539.93 88.84 536.14 91.99 533.64 93.88 C 532.97 93.87 531.65 93.86 530.98 93.85 C 525.70 87.15 517.73 82.10 508.99 82.25 C 501.09 81.99 492.79 85.99 489.14 93.19 C 486.88 96.95 486.71 101.58 487.46 105.80 C 489.44 113.79 496.82 119.75 504.89 120.78 C 514.96 122.58 524.96 117.20 531.00 109.34 C 531.63 109.31 532.89 109.26 533.52 109.24 C 535.45 111.13 538.66 112.91 538.18 116.07 C 536.63 119.91 533.05 122.48 529.74 124.77 C 521.05 130.40 510.12 131.95 500.06 129.89 C 491.19 127.95 482.86 122.29 478.91 113.96 C 475.94 108.09 475.65 101.18 476.91 94.82 Z" style="fill: rgb(0, 0, 0);"></path>
<path class="include" d=" M 592.90 78.81 C 596.01 76.68 598.81 73.17 602.92 73.32 C 606.02 73.52 609.40 72.65 612.30 74.04 C 613.41 76.23 611.23 77.59 609.73 78.73 C 602.12 84.39 594.59 90.16 587.00 95.85 C 596.26 106.13 605.50 116.46 614.49 126.97 C 615.45 129.90 611.97 129.95 610.02 129.88 C 607.03 129.71 603.27 130.62 601.14 127.91 C 593.64 119.29 586.17 110.67 578.71 102.03 C 573.96 105.33 569.43 108.93 564.75 112.34 C 564.62 117.76 565.06 123.22 564.56 128.63 C 562.56 130.64 559.39 129.70 556.88 129.78 C 554.93 129.76 554.17 127.62 554.37 125.96 C 554.37 109.61 554.33 93.27 554.39 76.92 C 554.21 75.33 555.13 73.43 556.97 73.53 C 559.49 73.64 562.57 72.70 564.60 74.65 C 565.02 83.13 564.61 91.65 564.78 100.14 C 574.13 93.00 583.52 85.92 592.90 78.81 Z" style="fill: rgb(0, 0, 0);"></path>
<path class="include" d=" M 639.52 73.80 C 650.48 71.29 662.54 72.17 672.54 77.53 C 675.02 79.00 678.61 81.04 677.53 84.51 C 676.48 86.70 674.36 88.97 671.83 89.25 C 668.98 87.88 666.57 85.71 663.58 84.61 C 656.27 81.76 647.87 81.29 640.45 83.94 C 637.60 84.91 634.26 87.40 635.18 90.83 C 636.28 93.03 638.72 93.99 640.99 94.49 C 651.87 97.27 663.89 95.33 674.02 100.94 C 678.02 103.05 680.35 107.55 679.92 112.03 C 680.31 118.23 676.15 123.86 670.83 126.63 C 662.76 131.06 653.18 131.18 644.25 130.31 C 636.61 128.97 628.63 126.62 623.00 121.01 C 620.42 117.78 623.70 114.11 626.54 112.53 C 628.22 111.79 629.66 113.24 630.93 114.13 C 639.44 121.04 651.53 122.76 661.91 119.69 C 664.96 118.86 668.16 117.00 669.12 113.79 C 670.04 110.83 667.19 108.36 664.62 107.61 C 653.08 104.46 640.13 106.72 629.52 100.33 C 623.26 96.56 622.61 87.34 626.78 81.81 C 629.70 77.50 634.65 75.17 639.52 73.80 Z" style="fill: rgb(0, 0, 0);"></path>
<path class="include" d=" M 169.92 77.00 C 170.02 75.61 170.24 73.70 172.01 73.60 C 175.14 73.44 179.19 72.60 181.13 75.78 C 188.90 85.66 196.57 95.64 204.34 105.52 C 212.00 95.77 219.57 85.95 227.20 76.17 C 228.34 74.64 229.94 73.14 232.02 73.46 C 234.17 73.63 237.86 72.67 238.55 75.45 C 238.68 92.60 238.59 109.77 238.59 126.92 C 238.99 130.07 235.07 130.01 232.94 129.89 C 230.97 130.17 228.10 129.45 228.33 126.93 C 228.21 115.19 228.35 103.43 228.28 91.68 C 220.87 101.11 213.77 110.80 206.07 119.99 C 204.45 119.70 202.35 120.21 201.36 118.54 C 194.29 109.61 187.33 100.59 180.39 91.56 C 180.23 103.76 180.52 115.98 180.25 128.18 C 178.85 130.80 175.33 129.65 172.94 129.82 C 169.64 129.98 169.84 126.09 169.86 123.80 C 170.29 108.20 169.70 92.61 169.92 77.00 Z" style="fill: rgb(0, 0, 0);"></path>
<path class="include" d=" M 428.32 77.48 C 429.29 75.63 430.44 73.13 432.99 73.52 C 436.58 73.75 441.96 72.05 443.63 76.43 C 451.75 92.28 459.99 108.07 468.17 123.89 C 468.89 125.33 469.34 126.88 469.80 128.43 C 466.75 130.59 462.22 130.37 458.94 128.96 C 456.26 125.01 454.60 120.46 452.31 116.29 C 441.55 116.36 430.79 116.26 420.02 116.34 C 417.80 120.61 416.05 125.18 413.28 129.13 C 410.77 130.35 407.82 129.83 405.13 129.74 C 402.85 129.83 402.73 126.98 403.57 125.48 C 411.70 109.42 420.15 93.52 428.32 77.48 Z" style="fill: rgb(0, 0, 0);"></path>
<path class="exclude" d=" M 116.44 82.61 C 122.72 81.60 129.49 82.52 134.82 86.15 C 140.42 89.67 143.99 96.33 143.41 102.97 C 142.98 108.85 139.40 114.32 134.42 117.39 C 128.21 121.30 120.25 122.15 113.30 119.85 C 106.71 117.91 101.10 112.53 99.49 105.77 C 97.90 99.64 100.13 92.91 104.57 88.50 C 107.84 85.43 112.05 83.47 116.44 82.61 Z"></path>
<path class="exclude" d=" M 341.49 83.07 C 351.70 83.12 361.91 83.05 372.11 83.09 C 375.51 83.02 379.37 85.27 379.58 88.95 C 380.28 92.97 376.60 96.71 372.66 96.66 C 362.27 96.84 351.87 96.68 341.48 96.73 C 341.50 92.18 341.49 87.62 341.49 83.07 Z"></path>
<path class="exclude" d=" M 436.21 84.25 C 439.99 91.75 443.73 99.27 447.50 106.78 C 439.94 106.74 432.37 106.84 424.80 106.72 C 428.70 99.28 432.48 91.77 436.21 84.25 Z"></path>
<path class="exclude" d=" M 341.49 106.07 C 352.34 106.08 363.18 106.06 374.03 106.07 C 377.84 105.76 381.33 109.18 381.34 112.94 C 381.56 116.78 378.04 120.27 374.24 120.19 C 363.32 120.23 352.40 120.18 341.48 120.21 C 341.49 115.49 341.49 110.78 341.49 106.07 Z"></path>
</svg>