<svg xmlns="http://www.w3.org/2000/svg" class="logo-svg" viewBox="0 20 700 150" version="1.1">
<path class="include" d=" M 99.77 31.48 C 116.51 31.06 133.27 31.45 150.01 31.30 C 163.41 31.27 177.70 33.07 188.80 41.20 C 196.79 46.84 201.70 56.28 202.29 65.98 C 203.19 79.16 200.23 93.26 191.44 103.47 C 183.93 112.12 173.08 117.30 161.88 119.11 C 152.56 121.03 143.01 120.08 133.58 120.41 C 131.52 133.21 129.59 146.02 127.55 158.82 C 111.64 159.18 95.72 159.01 79.81 158.91 C 86.14 116.39 93.20 73.97 99.77 31.48 Z"></path>
<path class="include" d=" M 221.20 31.35 C 237.04 31.42 252.91 30.98 268.74 31.58 C 264.89 56.09 260.89 80.58 257.09 105.10 C 256.31 110.97 256.08 118.62 261.74 122.23 C 268.14 125.69 278.10 124.52 281.45 117.35 C 284.34 111.30 284.74 104.49 285.89 97.98 C 289.39 75.78 292.86 53.58 296.41 31.39 C 312.34 31.21 328.28 31.35 344.21 31.31 C 341.84 50.04 338.36 68.61 335.62 87.29 C 332.73 103.37 332.06 120.40 323.98 135.01 C 318.47 145.63 308.51 153.56 297.25 157.36 C 284.94 161.32 271.83 161.83 259.01 161.03 C 247.10 159.97 234.88 157.21 225.13 149.92 C 216.42 143.74 211.00 133.66 209.53 123.18 C 207.41 111.09 210.44 99.00 212.19 87.08 C 215.23 68.51 217.99 49.89 221.20 31.35 Z"></path>
<path class="include" d=" M 363.77 31.48 C 381.34 31.15 398.93 31.28 416.51 31.41 C 421.13 44.87 425.71 58.35 430.28 71.82 C 431.94 76.66 433.40 81.58 435.52 86.23 C 438.66 67.99 441.21 49.64 444.32 31.39 C 453.55 31.17 462.77 31.38 472.00 31.31 C 476.86 31.38 481.76 30.97 486.60 31.66 C 479.84 74.02 473.16 116.40 466.52 158.77 C 451.67 159.28 436.80 158.90 421.95 158.98 C 418.84 152.45 416.80 145.48 414.07 138.80 C 408.17 123.75 402.86 108.48 396.75 93.52 C 392.55 115.20 389.98 137.17 386.04 158.90 C 371.97 159.08 357.88 159.06 343.81 158.91 C 350.15 116.39 357.19 73.97 363.77 31.48 Z"></path>
<path class="include" d=" M 507.77 31.48 C 518.51 31.06 529.26 31.44 540.00 31.31 C 545.21 31.46 550.47 30.83 555.64 31.73 C 553.46 45.86 551.03 59.97 549.08 74.14 C 561.40 60.75 572.74 46.46 584.79 32.82 C 586.22 30.83 588.82 31.37 590.94 31.26 C 606.26 31.37 621.57 31.30 636.89 31.29 C 619.28 51.70 601.18 71.70 583.60 92.14 C 593.90 114.64 605.66 136.46 616.04 158.93 C 599.04 159.06 582.03 159.02 565.03 158.96 C 558.05 144.71 551.97 130.03 545.34 115.61 C 544.66 114.24 543.84 112.95 543.00 111.69 C 540.32 127.37 538.10 143.12 535.55 158.82 C 519.64 159.18 503.72 159.01 487.81 158.91 C 494.15 116.39 501.19 73.97 507.77 31.48 Z"></path>
<path class="exclude" d=" M 141.97 66.11 C 146.77 65.96 152.62 65.91 155.83 70.15 C 159.90 76.27 156.41 86.17 149.15 88.03 C 145.73 89.09 142.10 88.83 138.56 88.89 C 139.13 81.23 140.46 73.63 141.97 66.11 Z"></path>
</svg>