<svg xmlns="http://www.w3.org/2000/svg" class="logo-svg" viewBox="0 15 700 175" version="1.1">
<path class="include" d=" M 535.55 24.45 C 545.03 20.29 556.05 18.92 566.05 22.02 C 569.82 23.48 573.74 25.60 575.72 29.30 C 580.05 37.03 577.90 48.05 569.85 52.46 C 569.30 51.99 568.75 51.52 568.21 51.05 C 572.30 48.43 576.13 44.29 575.83 39.10 C 576.47 34.34 574.14 29.49 569.98 27.09 C 563.56 23.95 554.99 25.67 550.75 31.60 C 544.14 41.24 542.26 53.04 539.67 64.20 C 546.37 64.20 553.08 64.27 559.79 64.15 C 559.72 64.68 559.58 65.73 559.50 66.25 C 552.67 66.33 545.84 66.09 539.01 66.40 C 538.23 72.26 536.17 77.85 534.83 83.60 C 526.68 116.92 518.09 150.12 509.92 183.43 C 499.74 183.43 489.57 183.39 479.39 183.45 C 489.22 144.42 498.97 105.37 508.59 66.29 C 504.76 66.23 500.94 66.24 497.12 66.28 C 497.19 65.76 497.34 64.71 497.42 64.19 C 501.35 64.22 505.29 64.21 509.23 64.22 C 511.64 56.75 512.90 48.77 517.11 42.02 C 521.46 34.63 527.58 27.94 535.55 24.45 Z"></path>
<path class="include" d=" M 465.44 24.42 C 475.55 24.46 485.67 24.37 495.78 24.47 C 493.83 33.93 491.11 43.21 489.01 52.64 C 478.77 52.71 468.52 52.66 458.28 52.67 C 460.47 43.21 462.82 33.77 465.44 24.42 Z"></path>
<path class="include" d=" M 104.29 42.33 C 110.85 34.46 120.80 29.88 130.92 29.00 C 139.70 28.21 149.39 28.79 156.73 34.22 C 166.62 40.61 168.12 55.86 160.71 64.69 C 157.80 68.00 153.93 70.37 149.77 71.78 C 149.63 71.32 149.35 70.41 149.21 69.95 C 153.52 67.93 157.89 65.51 160.59 61.44 C 163.23 56.33 164.27 50.18 162.16 44.69 C 157.81 31.27 137.96 27.25 128.36 37.42 C 125.61 39.87 124.86 43.55 123.77 46.89 C 123.28 52.03 124.24 57.14 125.87 62.00 C 133.27 79.52 147.65 93.35 153.21 111.75 C 156.61 121.50 156.77 132.41 153.25 142.15 C 150.02 152.64 141.59 160.57 132.54 166.27 C 117.91 175.17 99.80 177.40 83.16 173.96 C 69.73 171.17 57.63 160.81 54.63 147.14 C 53.76 139.33 53.61 130.84 58.01 123.96 C 62.78 115.10 72.06 109.29 81.86 107.65 C 83.58 107.52 86.23 106.73 86.68 109.34 C 77.35 109.96 67.91 113.71 62.26 121.45 C 56.14 129.00 54.72 139.54 57.34 148.73 C 59.80 156.93 65.98 163.47 73.20 167.79 C 83.64 173.00 96.32 174.54 107.33 170.19 C 117.76 166.49 124.71 155.79 125.44 144.96 C 125.78 138.35 126.04 131.50 123.81 125.16 C 121.54 118.28 117.91 111.98 114.26 105.76 C 106.83 95.52 99.22 84.70 96.72 72.05 C 95.16 61.75 96.97 50.19 104.29 42.33 Z"></path>
<path class="include" d=" M 390.89 50.60 C 401.72 45.63 413.02 41.82 423.97 37.12 C 422.37 46.28 419.78 55.22 417.43 64.20 C 425.86 64.30 434.31 64.03 442.74 64.36 C 442.34 64.84 441.54 65.80 441.14 66.29 C 433.06 66.25 424.97 66.20 416.90 66.32 C 416.42 68.96 415.80 71.57 415.10 74.16 C 411.70 88.84 407.43 103.30 404.19 118.01 C 402.90 123.32 400.81 128.53 400.73 134.06 C 400.67 137.43 402.72 140.88 405.94 142.10 C 411.30 143.62 417.10 141.79 420.95 137.86 C 426.53 131.85 430.18 124.25 432.40 116.41 C 433.08 116.30 433.78 116.22 434.48 116.17 C 434.04 117.49 433.60 118.81 433.17 120.14 C 429.82 131.04 422.91 141.60 412.17 146.35 C 403.87 149.76 394.30 150.18 385.80 147.21 C 380.95 145.17 376.39 141.70 374.22 136.78 C 371.81 131.60 371.84 125.57 373.11 120.09 C 377.26 104.17 380.81 88.10 385.16 72.23 C 385.60 70.24 386.10 68.27 386.62 66.30 C 382.85 66.22 379.07 66.25 375.31 66.28 C 375.37 65.76 375.51 64.72 375.58 64.21 C 379.40 64.21 383.21 64.22 387.03 64.21 C 388.28 59.66 389.76 55.18 390.89 50.60 Z"></path>
<path class="include" d=" M 210.78 80.70 C 215.81 71.49 224.76 64.21 235.27 62.55 C 243.38 61.53 252.40 63.85 257.79 70.31 C 262.85 75.91 264.78 83.56 265.17 90.94 C 265.58 107.00 260.51 123.48 249.67 135.54 C 243.71 142.60 235.20 147.67 225.96 148.77 C 218.66 149.99 210.13 148.86 204.87 143.16 C 200.84 139.75 199.56 134.41 198.04 129.59 C 196.91 139.36 193.47 148.64 191.47 158.23 C 189.04 166.55 187.35 175.06 185.15 183.44 C 174.93 183.42 164.70 183.39 154.47 183.46 C 156.78 173.54 159.80 163.80 161.77 153.80 C 167.58 132.31 172.49 110.60 178.16 89.07 C 179.22 83.95 180.68 78.92 181.76 73.81 C 182.70 70.63 183.49 67.41 184.37 64.21 C 194.32 64.25 204.27 64.19 214.22 64.25 C 212.97 69.71 211.74 75.17 210.78 80.70 Z"></path>
<path class="include" d=" M 319.59 62.74 C 331.08 61.27 343.63 63.62 352.60 71.31 C 361.10 77.86 364.94 89.03 364.24 99.52 C 363.57 108.96 361.06 118.63 355.21 126.25 C 346.41 138.14 332.90 146.80 318.09 148.53 C 307.38 150.20 295.60 148.95 286.51 142.62 C 278.36 137.46 272.73 128.45 272.05 118.78 C 271.10 108.63 273.21 98.13 278.31 89.25 C 287.00 74.65 302.77 64.78 319.59 62.74 Z"></path>
<path class="include" d=" M 455.59 64.14 C 465.74 64.36 475.89 64.11 486.04 64.28 C 480.36 87.20 474.69 110.12 468.85 133.00 C 468.30 135.85 467.93 139.55 470.81 141.32 C 472.96 142.12 475.50 141.51 477.12 139.89 C 480.20 137.49 482.09 134.04 484.19 130.84 C 484.72 130.71 485.78 130.44 486.32 130.31 C 482.41 139.08 474.90 147.18 464.99 148.57 C 457.23 150.11 447.70 149.18 442.50 142.50 C 439.33 138.37 439.28 132.87 439.73 127.92 C 442.67 115.30 445.93 102.75 449.19 90.21 C 451.05 81.46 453.28 72.79 455.59 64.14 Z"></path>
<path class="include" d=" M 565.97 64.32 C 576.22 64.12 586.46 64.26 596.71 64.24 C 592.74 81.50 587.73 98.52 583.95 115.84 C 582.60 121.97 579.48 128.02 580.49 134.43 C 581.76 138.83 587.49 139.03 590.87 137.04 C 599.08 132.00 604.12 123.08 606.48 113.93 C 610.75 97.41 614.69 80.81 618.87 64.27 C 629.06 64.17 639.25 64.26 649.45 64.22 C 643.83 87.26 637.85 110.21 632.21 133.24 L 631.86 133.82 C 629.78 145.56 625.05 157.00 617.16 166.04 C 601.99 182.82 577.07 188.20 555.53 183.32 C 547.52 180.95 540.03 175.36 537.61 167.06 C 537.29 162.76 536.86 158.26 538.55 154.18 C 540.04 149.87 543.82 146.77 548.03 145.27 C 548.18 145.75 548.48 146.69 548.63 147.16 C 545.20 148.65 541.99 151.08 540.51 154.61 C 538.00 161.29 539.14 169.47 544.45 174.50 C 556.24 185.39 577.42 184.39 587.27 171.37 C 597.36 158.96 598.86 142.34 603.12 127.46 C 600.07 132.19 596.52 136.68 591.98 140.06 C 583.70 145.59 572.72 147.38 563.32 143.78 C 557.12 141.55 553.10 135.33 552.34 128.95 C 551.17 119.40 554.91 110.28 556.99 101.13 C 559.54 88.75 563.27 76.66 565.97 64.32 Z"></path>
<path class="exclude" d=" M 315.93 73.94 C 318.75 69.76 322.33 64.45 327.99 64.58 C 331.68 64.57 334.03 67.71 335.30 70.80 C 336.99 78.46 335.36 86.23 334.23 93.84 C 332.95 101.06 330.99 108.11 329.21 115.21 L 328.86 115.83 C 325.37 126.15 322.64 137.78 313.99 145.16 C 312.12 146.70 309.46 147.85 307.04 147.04 C 303.00 146.10 300.72 141.81 300.39 137.97 C 299.69 129.24 301.17 120.54 303.18 112.08 C 305.71 98.89 309.63 85.84 315.93 73.94 Z"></path>
<path class="exclude" d=" M 222.12 71.93 C 224.94 70.82 228.63 70.85 230.85 73.19 C 233.07 75.13 233.22 78.31 234.21 80.91 C 234.57 85.60 234.47 90.31 234.09 95.00 C 233.02 100.99 232.76 107.17 230.68 112.95 C 227.71 121.87 223.98 131.21 216.50 137.32 C 213.02 140.34 207.24 140.98 203.77 137.63 C 200.35 134.11 199.82 128.78 200.34 124.10 C 201.28 116.58 203.56 109.32 205.46 102.00 C 207.13 95.44 207.92 88.44 211.61 82.60 C 214.28 78.37 217.57 74.22 222.12 71.93 Z"></path>
</svg>