<svg xmlns:rdf="http://www.w3.org/1999/02/22-rdf-syntax-ns#" xmlns="http://www.w3.org/2000/svg" viewBox="0 0 700 200" version="1.1" xmlns:cc="http://creativecommons.org/ns#" xmlns:dc="http://purl.org/dc/elements/1.1/" class="logo__polygraph logo__part" aria-labelledby="logo-title">
<title id="logo-title">Polygraph</title>
<path class="include" d="m217 40.5c2-0.6 5-0.7 7-0.7v83.2c0 4 0 8 1 11 2 1 4 2 6 2v6h-38v-6c2 0 4-1 6-2 1-1 1-3 1-5v-73c0-3.9-5-3.9-7-5.9v-4.2l24-5.4z"/>
<path class="include" d="m615 40.8c2-0.7 5-1 9-1.1 0 14.2-1 28.4 0 42.6 4-5 9-9.9 16-11.4s14-1.3 20 3.1c5 3.7 7 10.1 7 16v40c0 2 0 3 1 4 2 2 4 2 6 2v6h-38v-6c2 0 4 0 6-2 1-2 1-5 1-7v-34c0-3.2-2-6.9-5-7.8-5-1.3-10 0.2-14 2.3 0 15.5-1 31.5 0 46.5 2 1 4 2 6 2v6h-38v-6c2 0 4 0 6-2 1-1 1-2 1-4v-76c-2-1.3-5-2.6-7-4v-4c7-1.9 15-3.4 23-5.2z"/>
<path d="m53.4 50.5h-23.6v5.7c3.6 0.6 9.2 0.8 9.5 5.7 0.2 21.7 0 43.1 0.1 65.1 0.1 3-0.2 6-2.4 7-2.3 1-4.8 1-7.3 2 0.1 2 0.1 4 0.1 6h50c0-2 0-4 0.1-6-3.7-1-7.4-1-10.9-2-3-1-4.2-5-4.2-8 0-6 0-13 0.1-20 11.9 0 25 1 35.1-6 14-8.1 16-30.1 4-40.7-7.4-6.8-17.6-8.6-27-8.8h-23.6zm13.4 6.3c4.4 0.1 8.9 1.1 12.4 4 5.3 3.8 7.5 10.8 7.3 17.2 0.2 6.4-1.9 13.3-7 17.5-4 3.4-9.6 4.1-14.7 3.7 0-14.1 0-28.2 0.1-42.4h1.9z"/>
<path d="m152 70.1c-2 0-5 0.2-8 0.6-10 1.8-20 9.3-25 19.4-3 7.3-4 15.9-3 23.9 1 9 5 17 13 22 8 7 20 7 30 6 11-1 20-9 25-19 4-8 5-17 3-26.3-2-10-9-18.6-18-23-5-2.4-11-3.6-17-3.6zm-1 5.8c3 0 6 2.6 7 5.7 3 7.7 4 16.2 4 24.4 0 8 0 16-2 24-1 3-3 7-7 7-5 1-8-5-9-9-3-12-3-24-2-36.1 0-5.5 1-12.6 6-15.5 1-0.3 2-0.4 3-0.5z"/>
<path d="m338 70.1c-9 0-19 2.8-25 9.5-6 5.6-6 14-5 21.4 1 6 6 10 11 13-4 2-8 5-10 9s-2 9-1 13c0 3 3 6 6 8-3 1-6 2-8 4-3 3-3 7-2 10 2 5 7 8 12 10 14 3 28 3 42-1 7-2 14-7 17-15 2-7 2-15-3-21-4-4-11-6-17-6h-33c-5-2-1-11 3-9 7 1 13 1 19 1 8-1 16-4 21-11 3-5 3-10.5 3-15.8-1-3.9-4-6.9-7-9.9 4 0.2 9 0.2 13 0.3v-9c-8-0.3-16 0.7-24 0.1-4-1-8-1.6-12-1.6zm-1 5.8c3 0.1 5 1.8 6 4.1 3 7.2 3 15.5 2 23 0 4-2 9-7 9-3 0-5-4-6-6-3-6.8-3-14.3-2-21.4 1-3.2 2-7 5-8.4 1-0.2 2-0.3 2-0.3zm-16 71.1h2 30c3 0 7 2 7 5 0 4-3 7-6 8-7 4-15 4-23 3-5-1-12-3-14-9 0-2 0-5 1-7h3z"/>
<path class="include" d="m418 73.5c5-3.9 11-4.5 16-1.6v18.6c-8 0.1-17-0.5-24 4.7-1 9.8 0 19.8 0 29.8 0 3-1 7 2 9 3 1 5 2 8 2v6h-41v-6c2 0 4-1 6-2 1-16 1-32 1-47.8-2-1.5-5-3-7-4.4v-4c8-2.6 17-4.8 25-7.2 2-0.7 4-0.4 7-0.4 0 6.1-1 12.2-1 18.2 3-5.2 4-11 8-14.9z"/>
<path d="m470 70c-8-0.1-15 1.4-22 5-4 2.5-7 7-7 12 0 4 2 8.3 6 9.6 5-0.1 10-1.3 15-1.9 0-4.8-2-9.9 0-14.6 1-3.2 5-5.5 8-4.2 3 0.7 4 3.9 4 6.5 1 5.3 0 10.6 0 15.9-7 2.7-14 5.7-22 7.7-6 3-12 6-14 13-1 6-1 13 3 17 4 6 12 7 19 6 6-1 11-5 15-9 2 3 4 7 8 9 9 2 18 0 24-6l-1-4c-2 0-6 2-7-1-1-9 0-18-1-27 0-7.9 1-16.4-2-23.6-3-4.9-8-7.1-13-8.6-4-1.1-9-1.7-13-1.8zm4 35c1 7 0 15 0 23-2 1-5 2-7 1-4-1-6-5-7-9 0-3 0-7 3-9 3-4 7-5 11-6z"/>
<path d="m562 70c-1 0-1 0.1-2 0.1-8-0.2-15 5.3-20 11.5v-11.4c-2 0-4-0.3-6 0.4-9 2.3-17 4.8-26 7.1v4c3 1.5 5 3.1 8 4.6-1 23.7 0 48.7 0 72.7 0 4-5 4-8 5v5h42v-5c-4-1-9 0-10-4-1-6 0-13 0-19 12 4 27 2 36-8 8-7 11-18 11-28 1-8.5 0-17.6-5-24.8-5-6.4-13-10.2-20-10.2zm-15 14.8c3-0.1 6 1 9 3.2 4 3.3 6 9 6 14 1 10 1 20-4 29-3 4-9 7-14 4-4-3-4-8-4-12v-36c2-1.4 4-2.2 7-2.2z"/>
<path class="include" d="m231 71.5c14-0.1 28 0 42-0.1v5.2c-3 0.6-6 1-8 2.4-2 1.9 0 4.6 0 6.7 5 10.3 9 20.3 13 31.3 2-4 3-8 5-11 2-7.3 5-14.2 8-21.1 1-1.9 2-4.3 0-5.9-2-1.5-5-1.7-8-2.4v-5.2c8 0.1 16 0 25 0.1 0 1.7-1 3.5 0 5.2-3 1.1-6 2.3-7 5.2-6 14.7-12 29.1-19 44.1-3 9-7 17-10 26-3 5-5 11-9 15-4 3-10 3-15 2-2 0-5-1-6-4s0-7 0-10c6 1 13 3 19-1 3-2 4-6 6-10-10-19-18-38-27-57.6-2-2.8-3-6.7-6-8.2-1-0.8-3-1-3-2.2v-4.5z"/>
</svg>
