<svg xmlns="http://www.w3.org/2000/svg" xmlns:xlink="http://www.w3.org/1999/xlink" version="1.1" id="Layer_1" x="0px" y="0px" width="33.928px" height="26.16px" viewBox="0 0 33.928 26.16" enable-background="new 0 0 33.928 26.16" xml:space="preserve"  aria-labelledby="audio-on">
	<g>
		<path d="M18.832,13.049c0-3.845,0.003-7.689-0.002-11.534c-0.001-1.32-0.945-1.894-2.083-1.25   c-0.52,0.294-1.017,0.642-1.479,1.021c-2.29,1.88-4.566,3.775-6.839,5.675c-0.239,0.2-0.471,0.298-0.788,0.296   C5.482,7.244,3.323,7.25,1.165,7.25c-0.892,0-1.164,0.271-1.164,1.166C0,11.583,0,14.751,0,17.919c0,0.806,0.302,1.11,1.108,1.11   c2.223,0.001,4.445,0.007,6.668-0.007c0.345-0.002,0.597,0.105,0.855,0.324c1.792,1.521,3.581,3.045,5.4,4.531   c0.869,0.709,1.769,1.392,2.717,1.988c0.994,0.625,1.82,0.224,2.056-0.901c0.029-0.136,0.026-0.279,0.026-0.419   C18.832,20.713,18.832,16.881,18.832,13.049z M33.928,13.048c0-0.37,0-0.741,0-1.111c0-0.064-0.007-0.127-0.012-0.191   c-0.285-3.402-1.508-6.454-3.405-9.27c-0.437-0.648-1.48-0.725-2.014-0.353c-0.348,0.243-0.421,0.567-0.199,0.927   c0.114,0.185,0.243,0.359,0.36,0.542c3.163,4.957,3.893,10.187,1.649,15.694c-0.516,1.265-1.292,2.426-1.965,3.625   c-0.215,0.384-0.235,0.644,0.019,0.897c0.513,0.513,1.645,0.451,2.059-0.145C32.641,20.474,33.931,16.971,33.928,13.048z    M28.879,13.031c-0.006-2.144-0.495-4.184-1.453-6.113c-0.329-0.663-0.891-0.928-1.605-0.756c-0.759,0.183-0.95,0.584-0.612,1.281   c1.157,2.388,1.565,4.889,1.148,7.519c-0.212,1.334-0.637,2.597-1.239,3.802c-0.137,0.275-0.178,0.526,0.038,0.779   c0.526,0.616,1.817,0.482,2.181-0.241C28.327,17.333,28.863,15.251,28.879,13.031z M23.912,13.177   c0.012-1.167-0.149-2.171-0.452-3.154c-0.279-0.905-1.295-1.258-2.083-0.727c-0.287,0.193-0.415,0.458-0.302,0.792   c0.659,1.956,0.643,3.906,0.004,5.866c-0.06,0.183-0.006,0.484,0.116,0.628c0.331,0.394,0.804,0.458,1.295,0.375   c0.466-0.079,0.791-0.313,0.931-0.792C23.72,15.145,23.924,14.109,23.912,13.177z"></path>
		<path clip-rule="evenodd" d="M18.832,13.049c0,3.832,0,7.664-0.001,11.496   c0,0.14,0.002,0.283-0.026,0.419c-0.236,1.125-1.062,1.526-2.056,0.901c-0.948-0.596-1.848-1.279-2.717-1.988   c-1.82-1.486-3.609-3.01-5.4-4.531c-0.258-0.219-0.51-0.326-0.855-0.324c-2.223,0.015-4.445,0.008-6.668,0.007   C0.302,19.029,0,18.725,0,17.919c0-3.167,0-6.335,0.001-9.503c0-0.894,0.272-1.166,1.164-1.166c2.158,0,4.317-0.006,6.476,0.006   c0.317,0.002,0.548-0.096,0.788-0.296c2.273-1.9,4.55-3.795,6.839-5.675c0.462-0.379,0.959-0.727,1.479-1.021   c1.138-0.644,2.082-0.07,2.083,1.25C18.834,5.359,18.832,9.204,18.832,13.049z"></path>
		<path clip-rule="evenodd" d="M33.928,13.048c0.003,3.923-1.287,7.426-3.509,10.616   c-0.415,0.595-1.546,0.657-2.059,0.145c-0.254-0.254-0.234-0.514-0.019-0.897c0.673-1.199,1.449-2.36,1.965-3.625   c2.243-5.507,1.513-10.737-1.649-15.694c-0.117-0.183-0.246-0.358-0.36-0.542c-0.222-0.36-0.149-0.684,0.199-0.927   c0.533-0.372,1.577-0.295,2.014,0.353c1.897,2.816,3.121,5.868,3.405,9.27c0.005,0.064,0.012,0.127,0.012,0.191   C33.928,12.307,33.928,12.678,33.928,13.048z"></path>
		<path clip-rule="evenodd" d="M28.879,13.031c-0.016,2.221-0.552,4.303-1.542,6.271   c-0.364,0.723-1.655,0.857-2.181,0.241c-0.216-0.253-0.175-0.504-0.038-0.779c0.603-1.205,1.027-2.468,1.239-3.802   c0.417-2.629,0.009-5.13-1.148-7.519c-0.337-0.696-0.146-1.098,0.612-1.281c0.714-0.172,1.276,0.093,1.605,0.756   C28.384,8.847,28.873,10.887,28.879,13.031z"></path>
		<path clip-rule="evenodd" d="M23.912,13.177c0.012,0.933-0.192,1.968-0.492,2.99   c-0.14,0.478-0.464,0.713-0.931,0.792c-0.492,0.083-0.965,0.019-1.295-0.375c-0.122-0.145-0.175-0.446-0.116-0.628   c0.639-1.96,0.655-3.91-0.004-5.866c-0.113-0.334,0.015-0.599,0.302-0.792c0.788-0.531,1.804-0.178,2.083,0.727   C23.763,11.005,23.924,12.01,23.912,13.177z"></path>
	</g>
</svg>