<?xml version="1.0" encoding="utf-8"?>
<!DOCTYPE svg PUBLIC "-//W3C//DTD SVG 1.1//EN" "http://www.w3.org/Graphics/SVG/1.1/DTD/svg11.dtd">
<svg version="1.1" id="Layer_1" xmlns="http://www.w3.org/2000/svg" xmlns:xlink="http://www.w3.org/1999/xlink" x="0px" y="0px"
	 width="30px" height="30px" viewBox="0 0 30 30" enable-background="new 0 0 30 30" xml:space="preserve">
<path d="M29.302,25.938L18.364,15L29.302,4.062c0.93-0.929,0.93-2.436,0-3.365c-0.929-0.93-2.437-0.93-3.365,0L14.999,11.635
	L4.062,0.698c-0.929-0.93-2.437-0.93-3.365,0c-0.93,0.929-0.93,2.436,0,3.365L11.634,15L0.697,25.938
	c-0.93,0.929-0.93,2.436,0,3.365C1.162,29.767,1.771,30,2.379,30s1.219-0.232,1.683-0.697L15,18.365l10.938,10.938
	C26.402,29.767,27.011,30,27.62,30s1.218-0.232,1.682-0.697C30.232,28.374,30.232,26.866,29.302,25.938z"/>
</svg>
