<svg class="search-icon-svg" xmlns="http://www.w3.org/2000/svg" xmlns:xlink="http://www.w3.org/1999/xlink" version="1.1" x="0px" y="0px" viewBox="0 0 100 125" enable-background="new 0 0 100 100" xml:space="preserve"><g><path fill="" d="M84.755,64.56c12.914-12.914,12.914-33.927,0-46.841c-12.913-12.915-33.927-12.915-46.842,0     c-11.272,11.273-12.706,28.717-4.297,41.559l-22.72,22.72c-2.625,2.626-2.611,6.909,0.03,9.551s6.926,2.654,9.55,0.03     l22.72-22.72C56.038,77.266,73.481,75.834,84.755,64.56z M44.955,57.52c-9.032-9.032-9.032-23.727,0-32.76     c9.031-9.031,23.727-9.031,32.758,0c9.031,9.033,9.031,23.728,0,32.76C68.682,66.55,53.986,66.55,44.955,57.52z"></path></g></svg>