<svg version="1.1" id="icon-twitter" xmlns="http://www.w3.org/2000/svg" xmlns:xlink="http://www.w3.org/1999/xlink" x="0px" y="0px" width="20px" height="16.253px" viewBox="2.305 1.874 20 16.253" enable-background="new 2.305 1.874 20 16.253" xml:space="preserve" aria-labelledby="twitter-title twitter-desc">
	<title id="twitter-title">Twitter</title>
	<desc id="twitter-desc">Logo</desc>
	<g>
		<path d="M22.291,3.825c-0.572,0.841-1.258,1.556-2.05,2.126c0.017,0.129,0.017,0.302,0.017,0.525c0,1.111-0.156,2.206-0.475,3.301
		c-0.319,1.093-0.809,2.14-1.46,3.161c-0.651,1.013-1.43,1.901-2.334,2.665c-0.92,0.763-2.014,1.366-3.285,1.842
		c-1.273,0.477-2.635,0.701-4.096,0.682c-2.287,0-4.398-0.618-6.303-1.843c0.301,0.032,0.636,0.051,0.999,0.051
		c1.904,0,3.602-0.588,5.096-1.763c-0.889-0.016-1.683-0.286-2.396-0.808c-0.7-0.538-1.174-1.207-1.444-2.03
		c0.271,0.046,0.523,0.064,0.762,0.064c0.365,0,0.73-0.03,1.078-0.128c-0.934-0.189-1.729-0.668-2.364-1.414
		C3.401,9.51,3.082,8.638,3.101,7.635V7.588C3.672,7.907,4.289,8.081,4.94,8.113C4.385,7.731,3.923,7.257,3.59,6.652
		C3.26,6.065,3.101,5.415,3.101,4.7c0-0.745,0.19-1.43,0.571-2.081c1.029,1.269,2.269,2.285,3.729,3.033
		c1.459,0.762,3.032,1.191,4.714,1.285c-0.064-0.318-0.095-0.634-0.095-0.936c0-1.143,0.396-2.111,1.206-2.921
		c0.809-0.811,1.779-1.206,2.922-1.206c1.174,0,2.175,0.428,2.998,1.303c0.921-0.174,1.792-0.522,2.588-1
		c-0.317,0.967-0.903,1.715-1.794,2.253c0.791-0.095,1.566-0.303,2.365-0.635L22.291,3.825z" />
	</g>
</svg>
